<svg xmlns="http://www.w3.org/2000/svg" height="600" width="900" version="1.0" viewBox="-2002 0 4004 2004"><path d="M2001.974 2336.691v-2669.4l-4004 .04v2669.4h4004z" class="fil0 str0" fill="#006233"/><g fill-rule="evenodd" stroke="#fff" fill="#fff"><path d="M1071.9 2779.7c-25.9 38.9-7.2 64.2 19.5 66 17.6 1.3 54.2-24.9 54.1-55.7l-10-5.6c5.6 15.8-.2 20.8-12.1 31.6-23.5 21.3-71.5 22.8-51.5-36.3z" stroke-width=".401" transform="matrix(2.0127 0 0 1.8314 -2490.894 -4040.744)"/><path d="M1277.2 2881.7c145.8 4.1 192.2-137 102.2-257.8l-8.9 13.3c5.8 56.3 14.2 111.8 15 169.5-17.6 20.7-43.2 13-48.3-10 .3-31.2-9.9-57.6-22.8-82.8l-7.2 13.3c8.4 20.7 17.5 44 19.4 69.5-41.6 49.9-87.6 60-70.5-5.6-32.9 57.5 16.9 98 73.3 9.5 12.1 60.4 58.9 22.9 61.7 9.9 5.1-39.6 2.5-103.4-7.8-153.8 40.6 70.3 42 121 20.4 154.9-24 37.7-76.2 55.3-126.5 70.1z" transform="matrix(2.0127 0 0 1.8314 -2490.894 -4040.744)"/><path d="M1359.9 2722.2c-31.2 2.3-47.2-4.1-30.3-27.2 16.7-22.6 32.3-4.6 36.5 25.6 3.9 28.3-54.8 64.4-75.1 64.4-30.7 0-44.9-39.5-16.6-75-36.4 103.6 78.6 43.5 85.5 12.2zm-21.6-24c-3.8-.2-6.6 6.5-4.7 7.8 5.5 3.8 14.2 1.5 15.1-.4 1.9-4.2-5.1-7.2-10.4-7.4z" transform="matrix(2.0127 0 0 1.8314 -2490.894 -4040.744)"/><path d="M1190.5 2771.1c-30 59-.1 83.4 38.4 76.6 22.4-4.1 50.8-20 67.2-41.7.3-47.8-.4-95.2-4.6-141.5 15-17.9-1.3-17.8-7-37-2.6 11.2-8.9 23.3-2.8 32 4.3 46.7 6.7 94 6.6 142.2-30.2 24.3-52.9 33.3-69.1 33.1-33.5-.3-40.7-28.5-28.7-63.7z" transform="matrix(2.0127 0 0 1.8314 -2490.894 -4040.744)"/><path d="M1251.8 2786.7c-.5-44.5-1.2-95-5.2-126.1 15.6-17.3-.8-17.7-5.9-37.1-3 11-9.6 23-3.8 31.9 2.6 47.6 5.1 95.2 5.6 142.8 3.6-2.3 7.7-3.2 9.3-11.5z" transform="matrix(2.0127 0 0 1.8314 -2490.894 -4040.744)"/><path d="M1135.4 2784.6c-3.8-4.8-6.5-10.2-9.6-14.9-.5-6.7 4-12.9 4.6-16.3 5.1 7.9 8.1 13.9 12.2 17.8m5.4 3.1c7.5 3 16.7 3 25.2 3.2 32.8.6 67.3-4.8 63.6 39.6-3.2 39.4-35.9 62.2-65.2 61.9-41.7-.4-77.3-46.4-13-131.1 6.2-1 14.3.7 21 1.3 11.5.9 23.3-.2 36.8-11-1.6-27.9-1.6-54.3-5-79.5-5.8-8.9.8-20.8 3.8-31.9 5.1 19.4 21.4 19.8 5.9 37.2 3.7 28 4.1 56.5 4.1 73.5-7.8 11.9-13.9 24.5-36.7 29.3-23.3-3.4-33.8-36-58.1-25.2 6.7-29.4 68.4-36.1 74.6-12.9-4.1 24.2-61.7 14.5-77 92.7-4.7 24.1 20.7 46.3 46.8 44.5 25.5-1.7 52.7-19.4 55.4-49.2 2.1-24.9-33-22-47.7-21.7-21.4.5-34.9-2.8-43-7.5m21.9-53.9c3.8-3.6 17.1-6.1 21.9-.3-3.6 2.4-7.1 5-10 8.1-5-2.6-8.3-5.2-11.9-7.8z" stroke-width=".401" transform="matrix(2.0127 0 0 1.8314 -2490.894 -4040.744)"/><path d="M1194 2650.9c3.6 8 5.1 13.3 5.3 21-2.2 10.4-11.1 20.1-20.3 20.4-5.7.2-12.1-1.4-16.6-10.3-.5-1.1-2.9-3.7-5.2-2.5-10.1 16.6-17.6 23.6-26.7 23.5-18.2-.3-12.8-16.5-29.6-21.5-7-.2-18.5 6.9-24.4 20.8-22.4 63.5-42.8-.2-34.1-29.8 1.3 28.3 8.1 45.1 15.1 44.6 5.1-.5 9.6-12.3 16.1-24.7 5-9.5 17-26.6 29.7-26.6 11.6.3 4.3 21.6 27.5 21.3 11.2-.2 21.5-8.8 31.9-26 2.3-.4 2.9 3.7 3.4 5.1 1.6 5.9 11.8 22.1 25.6 7.3-.7-3.2-.4-8.5-3.9-9.6l6.2-13z" transform="matrix(2.0127 0 0 1.8314 -2490.894 -4040.744)"/><path d="M1266.9 2598.3c-12.3 6.1-21.3.5-26.4-4.9 8.9-1.8 15.8-5 17.8-12-4-9-13.5-12.9-26.9-13-17.9.5-27.1 7.7-28.2 17.6 8.3.3 15.8-2 19 6-14.7 7.2-32 9.8-50.8 9.7-30.8 1.6-35.3-12.3-43.4-24.5-.6-.8-3.3-2.1-4.7-1.9-9.5 0-16.5 33.2-27.2 33.1-10.7-1.4-8.3-21.4-11.4-32.8-2.6 17.9 3.3 84.5 36.4 12.2 1-2.4 2.4-1.7 3.3.3 8.9 20.2 27 27.2 46.5 28.2 16.3.9 37.1-6.2 59.4-18.8 5.9 6.5 10.6 13.9 23 15.3 14.5.7 30-9.8 33.5-22.8 1.8-6.7 2.1-19.9-5-20.1-9.9-.3-17.1 23.7-14.8 45.3.2-.3 1.3-5.4 1.3-5.4m-43.8-28.8c6.5-3 12.8-4.4 17.8 2.2-3.9 1.4-6.3 2.3-8.4 4-2.8-2.2-6.6-3.3-9.4-6.2zm47.8 14.9c1.6-7.1 2.5-12.8 8.3-16.5 1.2 7.5 1.4 11.7-8.3 16.5zM1311.3 2606.9c-1.9-6.1-3.8-11.4-4.4-18-1.4-13.4 10.1-21 20.5-19.9 10.7 1.1 17.8 5.1 28 8.6 8 2.7 18.8 4.8 29.1 7.7 5.8 2.6 0 9.4-1.5 10.3-25.8 10.1-44.1 26.1-60.5 26.8-9.8.5-18.5-5.9-26.4-19-.5-25.4-1.4-55.2-3.9-73.9 3.8-3.8 4.6-6.6 6.4-9.7 2 24.7 2.8 50.7 3.3 76.9 2.1 4.5 4.7 8.3 9.4 10.2zm16.5 2c-13.8 3.9-12.1-7.8-13.4-15-1.5-8.4-.5-17.9 10.2-15.5 13.9 3.7 26.6 8.6 38.9 13.8l-35.7 16.7z" stroke-width=".401" transform="matrix(2.0127 0 0 1.8314 -2490.894 -4040.744)"/><path d="M1314.3 2621.3l1.9 9.3h1.5l-.6-8.7" stroke-width=".401" transform="matrix(2.0127 0 0 1.8314 -2490.894 -4040.744)"/><path stroke-linejoin="round" d="M1094.2 2718.5l7-7.2 8.1 6.9-7.5 6.7-7.6-6.4zM1112 2716.1l7.1-7.2 8.1 6.9-7.5 6.7-7.7-6.4zM1062.5 2641.5l7.1-7.2 8.1 6.9-7.5 6.7-7.7-6.4zM1065.7 2662.7l7.1-7.2 8 6.9-7.5 6.7-7.6-6.4zM1194.2 2698.2l6.5-5.3 6 6.5-6.8 4.8-5.7-6zM1108.4 2562.5l4.6-4.7 5.3 4.5-4.9 4.4-5-4.2zM1120.1 2561l4.6-4.8 5.3 4.6-4.9 4.3-5-4.1zM1365.7 2614.7l-4.4 3.7-4.2-4.3 4.6-3.4 4 4z" stroke-linecap="round" stroke-width="4.008" transform="matrix(2.0127 0 0 1.8314 -2490.894 -4040.744)"/><path d="M1158.7 2747.4l-.5 7.9 12.6 1.2 10.1-7.6-22.2-1.5z" stroke-width=".401" transform="matrix(2.0127 0 0 1.8314 -2490.894 -4040.744)"/><path d="M1265.2 2599.8l3.7-.8-.4 10.3-2.3.9-1-10.4z" transform="matrix(2.0127 0 0 1.8314 -2490.894 -4040.744)"/></g><path d="M0 1479.776c285.719 0 518.187-211.522 518.187-471.46 0-143.03-70.131-270.653-180.521-356.921 66.232 70.908 106.49 164.261 106.49 265.89 0 225.75-198.707 408.886-444.156 408.886-245.461 0-444.167-183.136-444.167-408.885 0-101.63 40.258-194.983 106.49-265.891-110.39 86.268-180.522 213.891-180.522 356.92 0 259.94 232.48 471.461 518.199 471.461z" fill="#fff" class="fil2"/><g stroke="#000" stroke-width="8.012" fill="#fff"><path d="M-54 1623c-88 44-198 32-291-28-4-2-6 1-2 12 10 29 18 52-12 95-13 19 2 22 24 20 112-11 222-36 275-57l6-42zM-56 1675c-35 14-95 31-162 43-27 4-26 21 22 27 49 5 112-30 150-61l-10-9z" class="fil2 str2" transform="matrix(1.2987 0 0 1.1817 0 -175.806)"/><path d="M0 1579c12 0 34-5 56-8 41-7 11 56-56 56v21c68 0 139-74 124-107-21-48-79-7-124-7s-103-41-124 7c-15 33 56 107 124 107v-21c-67 0-97-63-56-56 22 3 44 8 56 8z" class="fil2 str2" transform="matrix(1.2987 0 0 1.1817 0 -175.806)"/><path d="M54 1623c88 44 198 32 291-28 4-2 6 1 2 12-10 29-18 52 12 95 13 19-2 22-24 20-112-11-222-36-275-57l-6-42zM56 1675c35 14 94 31 162 43 27 4 26 21-22 27-49 5-112-30-150-61l10-9z" class="fil2 str2" transform="matrix(1.2987 0 0 1.1817 0 -175.806)"/><path d="M3 1665c2 17 5 54 28 38 31-21 38-37 38-67 0-19-23-47-69-47s-69 28-69 47c0 30 7 46 38 67 23 16 25-21 28-38 1-6 6-4 6 0z" class="fil2 str2" transform="matrix(1.2987 0 0 1.1817 0 -175.806)"/></g><g stroke="#000" stroke-width="8.012" fill="#fff"><path d="M-29 384c-13-74-122-79-139-91-20-13-17 0-10 20 20 52 88 73 119 79 25 4 33 6 30-8z" class="fil2 str2" transform="matrix(1.2987 0 0 1.1817 0 -175.806)"/><path d="M4 386c11-76-97-112-110-129-15-18-17-7-10 14 13 45 60 98 88 112 23 12 30 17 32 3z" class="fil2 str2" transform="matrix(1.2987 0 0 1.1817 0 -175.806)"/><path d="M93 430c10-91-78-105-101-134-15-18-16-8-11 13 10 46 54 100 81 117 21 13 30 18 31 4z" class="fil2 str2" transform="matrix(1.2987 0 0 1.1817 0 -175.806)"/><path d="M66 410c-91-59-155-26-181-29-25-3-33 13 10 37 53 29 127 25 156 14 30-12 21-18 15-22zM203 450c-28-98-93-82-112-94s-21-9-17 13c8 39 75 82 108 95 12 4 27 10 21-14z" class="fil2 str2" transform="matrix(1.2987 0 0 1.1817 0 -175.806)"/><path d="M190 467c-78-63-139-16-163-23-18-5-10 7-3 12 50 35 112 54 160 32 19-8 20-10 6-21zM359 531c1-62-127-88-154-126-16-23-30-11-22 26 12 48 100 101 148 111 29 6 28-4 28-11z" class="fil2 str2" transform="matrix(1.2987 0 0 1.1817 0 -175.806)"/><path d="M355 542c-81-73-149-49-174-56-25-6-35 9 4 39 48 36 122 43 153 36s23-14 17-19zM500 649c-23-106-96-128-114-148-17-20-35-14-20 34 18 57 77 107 108 119 30 13 28 3 26-5z" class="fil2 str2" transform="matrix(1.2987 0 0 1.1817 0 -175.806)"/><path d="M499 663c-59-95-136-92-160-105-23-14-39-2-8 39 36 50 110 78 144 80s28-7 24-14z" class="fil2 str2" transform="matrix(1.2987 0 0 1.1817 0 -175.806)"/><path d="M575 776c34-108-44-148-52-166-9-18-18-18-23 1-22 77 49 152 60 167 11 14 13 7 15-2z" class="fil2 str2" transform="matrix(1.2987 0 0 1.1817 0 -175.806)"/><path d="M559 806c-27-121-98-114-114-131-17-17-19-5-16 17 8 59 79 99 111 119 10 6 22 13 19-5zM627 948c49-114-9-191-27-208-18-16-29-23-23 0 8 35-20 125 23 191 14 22 16 43 27 17z" class="fil2 str2" transform="matrix(1.2987 0 0 1.1817 0 -175.806)"/><path d="M601 971c11-70-29-134-72-159-25-15-26-11-26 10 2 65 63 119 81 149 17 28 16 7 17 0z" class="fil2 str2" transform="matrix(1.2987 0 0 1.1817 0 -175.806)"/><path d="M590 1153c-36-132 39-208 62-223 22-16 36-22 26 3-15 37 1 140-56 205-18 22-25 45-32 15z" class="fil2 str2" transform="matrix(1.2987 0 0 1.1817 0 -175.806)"/><path d="M598 1124c30-115-35-180-55-193-19-13-31-18-22 3 12 32-1 122 49 178 16 19 22 38 28 12z" class="fil2 str2" transform="matrix(1.2987 0 0 1.1817 0 -175.806)"/><path d="M561 1070c-54 58-55 143-31 193 15 29 17 27 31 6 38-61 15-149 17-188 1-37-11-17-17-11z" class="fil2 str2" transform="matrix(1.2987 0 0 1.1817 0 -175.806)"/><path d="M650 1162c0 80-49 145-101 165-30 11-30 8-26-16 14-90 83-123 108-152 24-28 19-5 19 3z" class="fil2 str2" transform="matrix(1.2987 0 0 1.1817 0 -175.806)"/><path d="M464 1400c88-80 41-136 45-188 2-28-9-21-19-11-56 55-59 153-47 191 5 17 13 15 21 8z" class="fil2 str2" transform="matrix(1.2987 0 0 1.1817 0 -175.806)"/><path d="M582 1348c-29 88-106 142-171 145-38 2-37-1-24-27 49-94 136-105 175-129 36-22 23 2 20 11z" class="fil2 str2" transform="matrix(1.2987 0 0 1.1817 0 -175.806)"/><path d="M343 1513c114-57 91-152 112-176 15-17-3-15-12-9-67 39-121 101-122 167 0 25 2 28 22 18z" class="fil2 str2" transform="matrix(1.2987 0 0 1.1817 0 -175.806)"/><path d="M187 1619c144 23 211-86 253-96 22-5 6-14-5-15-96-11-218 34-255 84-15 20-15 24 7 27z" class="fil2 str2" transform="matrix(1.2987 0 0 1.1817 0 -175.806)"/><path d="M333 1448c-29 95-137 173-218 179-38 3-38-1-24-26 65-118 178-138 218-168 34-26 27 6 24 15zM29 384c13-74 122-79 139-91 20-13 17 0 10 20-20 52-88 73-119 79-25 4-33 6-30-8z" class="fil2 str2" transform="matrix(1.2987 0 0 1.1817 0 -175.806)"/><path d="M-4 386c-11-76 97-112 110-129 15-18 17-7 10 14-13 45-60 98-88 112-23 12-30 17-32 3z" class="fil2 str2" transform="matrix(1.2987 0 0 1.1817 0 -175.806)"/><path d="M-93 430c-10-91 78-105 101-134 15-18 16-8 11 13-10 46-54 100-81 117-21 13-30 18-31 4z" class="fil2 str2" transform="matrix(1.2987 0 0 1.1817 0 -175.806)"/><path d="M-66 410c91-59 155-26 181-29 25-3 33 13-10 37-53 29-127 25-156 14-30-12-21-18-15-22zM-203 450c28-98 93-82 112-94s21-9 17 13c-8 39-75 82-108 95-12 4-27 10-21-14z" class="fil2 str2" transform="matrix(1.2987 0 0 1.1817 0 -175.806)"/><path d="M-190 467c78-63 139-16 163-23 18-5 10 7 3 12-50 35-112 54-160 32-19-8-20-10-6-21zM-359 531c-1-62 127-88 154-126 16-23 30-11 22 26-12 48-100 101-148 111-29 6-28-4-28-11z" class="fil2 str2" transform="matrix(1.2987 0 0 1.1817 0 -175.806)"/><path d="M-355 542c81-73 149-49 174-56 25-6 35 9-4 39-48 36-122 43-153 36s-23-14-17-19zM-500 649c23-106 96-128 114-148 17-20 35-14 20 34-18 57-77 107-108 119-30 13-28 3-26-5z" class="fil2 str2" transform="matrix(1.2987 0 0 1.1817 0 -175.806)"/><path d="M-499 663c59-95 136-92 160-105 23-14 39-2 8 39-36 50-110 78-144 80s-28-7-24-14z" class="fil2 str2" transform="matrix(1.2987 0 0 1.1817 0 -175.806)"/><path d="M-575 776c-34-108 44-148 52-166 9-18 18-18 23 1 22 77-49 152-60 167-11 14-13 7-15-2z" class="fil2 str2" transform="matrix(1.2987 0 0 1.1817 0 -175.806)"/><path d="M-559 806c27-121 98-114 114-131 17-17 19-5 16 17-8 59-79 99-111 119-10 6-22 13-19-5zM-627 948c-49-114 9-191 27-208 18-16 29-23 23 0-8 35 20 125-23 191-14 22-16 43-27 17z" class="fil2 str2" transform="matrix(1.2987 0 0 1.1817 0 -175.806)"/><path d="M-601 971c-11-70 29-134 72-159 25-15 26-11 26 10-2 65-63 119-81 149-17 28-16 7-17 0z" class="fil2 str2" transform="matrix(1.2987 0 0 1.1817 0 -175.806)"/><path d="M-590 1153c36-132-39-208-62-223-22-16-36-22-26 3 15 37-1 140 56 205 18 22 24 45 32 15z" class="fil2 str2" transform="matrix(1.2987 0 0 1.1817 0 -175.806)"/><path d="M-598 1124c-30-115 35-180 55-193 19-13 31-18 22 3-12 32 1 122-49 178-16 19-22 38-28 12z" class="fil2 str2" transform="matrix(1.2987 0 0 1.1817 0 -175.806)"/><path d="M-561 1070c54 58 55 143 31 193-15 29-17 27-31 6-38-61-15-149-17-188-1-37 11-17 17-11z" class="fil2 str2" transform="matrix(1.2987 0 0 1.1817 0 -175.806)"/><path d="M-650 1162c0 80 49 145 101 165 30 11 30 8 26-16-14-90-83-123-108-152-24-28-19-5-19 3z" class="fil2 str2" transform="matrix(1.2987 0 0 1.1817 0 -175.806)"/><path d="M-464 1400c-88-80-41-136-45-188-2-28 9-21 19-11 56 55 59 153 47 191-5 17-13 15-21 8z" class="fil2 str2" transform="matrix(1.2987 0 0 1.1817 0 -175.806)"/><path d="M-582 1348c29 88 106 142 171 145 38 2 37-1 24-27-49-94-136-105-175-129-36-22-23 2-20 11z" class="fil2 str2" transform="matrix(1.2987 0 0 1.1817 0 -175.806)"/><path d="M-343 1513c-114-57-91-152-112-176-15-17 3-15 12-9 67 39 121 101 122 167 0 25-2 28-22 18z" class="fil2 str2" transform="matrix(1.2987 0 0 1.1817 0 -175.806)"/><path d="M-187 1619c-144 23-211-86-253-96-22-5-6-14 5-15 96-11 218 34 255 84 15 20 15 24-7 27z" class="fil2 str2" transform="matrix(1.2987 0 0 1.1817 0 -175.806)"/><path d="M-333 1448c29 95 137 173 218 179 38 3 38-1 24-26-65-118-178-138-218-168-34-26-27 6-24 15z" class="fil2 str2" transform="matrix(1.2987 0 0 1.1817 0 -175.806)"/></g><g fill="#006233"><path d="M219.475 386.676c-24.674-16.544-115.581-7.09-132.464-17.726 32.467 24.816 105.192 7.09 132.464 17.726zM438.95 429.216c-19.48-31.905-135.061-53.175-151.944-81.536 29.87 54.358 119.478 47.268 151.945 81.536zM422.068 465.849c-42.856-37.814-142.854-22.452-172.723-44.904 70.128 57.902 109.088 12.998 172.723 44.904zM171.425 298.05c27.272 12.998 61.037 25.996 77.92 56.72-19.48-23.633-54.544-33.087-83.115-53.176 1.299 0 3.896-2.363 5.195-3.545zM597.389 541.476c-16.883-35.45-76.622-74.446-81.817-87.444 16.883 46.086 66.233 56.72 81.817 87.444zM612.973 604.106c-51.947-74.446-133.763-66.175-166.23-94.535 24.675 27.179 118.179 44.904 166.23 94.535zM733.75 718.73c3.895-79.174-61.038-108.716-63.636-153.62-1.298 53.176 66.233 125.259 63.635 153.62zM701.282 761.27c-12.986-68.538-101.296-73.265-116.88-113.442 0 37.814 103.894 76.81 116.88 113.442zM774.008 722.274c46.752 51.994 14.285 131.167 33.765 189.07-23.376-42.54-11.688-148.892-33.765-189.07zM697.386 944.431c70.129 68.538 41.558 145.347 70.129 178.435-35.064-46.086-29.87-135.894-70.129-178.435zM842.838 953.885c-59.74 60.266-23.376 151.255-54.545 193.796 35.065-36.632 29.87-148.892 54.545-193.796zM767.515 953.885c-7.792-69.72-79.22-106.352-85.713-144.166-7.792 37.814 68.83 96.898 85.713 144.166zM731.152 1120.502c11.688 48.45-31.168 152.438-18.182 184.343-28.57-55.54 24.675-160.71 18.182-184.343zM823.358 1231.58c-28.571 86.264-85.713 80.355-103.894 132.35 12.987-49.631 88.31-94.536 103.894-132.35zM637.648 1271.758c-37.662 57.902-6.494 124.077-37.662 165.436 44.155-41.36 20.779-118.169 37.662-165.436zM728.555 1430.104c-45.454 76.81-138.958 69.72-176.62 125.258 37.662-69.72 153.243-81.536 176.62-125.258zM563.623 1420.65c-80.517 50.813-55.843 103.988-116.88 160.71 76.621-56.722 70.128-119.35 116.88-160.71zM525.962 1626.263c-77.92-2.363-189.606 89.808-257.137 82.718 67.53 12.999 192.203-69.72 257.137-82.718zM399.99 1543.545c-5.194 72.083-207.787 118.169-229.864 166.618 24.675-63.811 202.593-111.078 229.865-166.618zM-58.44 214.15c-25.974-20.089-57.142-36.633-66.233-56.721 6.494 25.997 32.467 44.904 58.44 62.63 2.598-1.183 5.195-4.728 7.793-5.91zM-102.595 235.42c-40.259-17.725-87.011-16.544-107.79-41.359 12.987 24.815 57.142 34.269 94.803 47.267 3.896-2.363 9.09-4.726 12.987-5.908zM-219.476 386.676c24.675-16.544 115.582-7.09 132.465-17.726-32.467 24.816-105.192 7.09-132.465 17.726zM-438.951 429.216c19.48-31.905 135.062-53.175 151.945-81.536-29.87 54.358-119.478 47.268-151.945 81.536zM-422.068 465.849c42.856-37.814 142.854-22.452 172.723-44.904-70.128 57.902-109.088 12.998-172.723 44.904zM-249.345 354.77c24.675-47.267 94.803-53.176 112.984-81.536-27.272 42.54-87.01 49.63-112.984 81.536zM-49.35 313.411c71.427-30.724 141.556-4.726 175.321-18.907-41.557 20.089-140.256 10.635-175.32 18.907zM-597.389 541.476c16.883-35.45 76.622-74.446 81.816-87.444-16.882 46.086-66.232 56.72-81.816 87.444zM-612.973 604.106c51.947-74.446 133.763-66.175 166.23-94.535-24.675 27.179-118.18 44.904-166.23 94.535zM-733.75 718.73c-3.895-79.174 61.038-108.716 63.635-153.62 1.3 53.176-66.232 125.259-63.634 153.62zM-701.283 761.27c12.987-68.538 101.297-73.265 116.88-113.442 0 37.814-103.893 76.81-116.88 113.442zM-774.008 722.274c-46.752 51.994-14.286 131.167-33.766 189.07 23.376-42.54 11.688-148.892 33.766-189.07zM-697.387 944.431c-70.128 68.538-41.557 145.347-70.128 178.435 35.064-46.086 29.87-135.894 70.128-178.435zM-842.838 953.885c59.74 60.266 23.376 151.255 54.544 193.796-35.064-36.632-29.87-148.892-54.544-193.796zM-767.515 953.885c7.792-69.72 79.22-106.352 85.712-144.166 7.792 37.814-68.83 96.898-85.712 144.166zM-731.152 1120.502c-11.688 48.45 31.168 152.438 18.181 184.343 28.571-55.54-24.674-160.71-18.181-184.343zM-823.358 1231.58c28.571 86.264 85.713 80.355 103.894 132.35-12.987-49.631-88.31-94.536-103.894-132.35zM-637.648 1271.758c37.662 57.902 6.494 124.077 37.662 165.436-44.155-41.36-20.779-118.169-37.662-165.436zM-728.555 1430.104c45.454 76.81 138.958 69.72 176.62 125.258-37.662-69.72-153.244-81.536-176.62-125.258zM-563.623 1420.65c80.517 50.813 55.842 103.988 116.88 160.71-76.622-56.722-70.128-119.35-116.88-160.71zM-525.962 1626.263c77.92-2.363 189.606 89.808 257.137 82.718-67.531 12.999-192.203-69.72-257.137-82.718zM-399.99 1543.545c5.194 72.083 207.787 118.169 229.864 166.618-24.675-63.811-202.593-111.078-229.865-166.618zM-105.192 315.775C-89.608 251.964-11.688 240.147-1.3 202.333-5.195 242.51-97.4 287.414-105.192 315.775zM124.672 157.429c-11.688 48.449-96.101 75.628-107.79 112.26 3.897-49.63 90.908-77.991 107.79-112.26zM58.44 272.052c40.259-59.084 123.374-43.722 151.945-77.99-20.78 40.176-123.374 41.358-151.945 77.99z" class="fil0"/></g><path stroke-linejoin="round" d="M475.64 1011.9c0 263.22-213.38 476.6-476.6 476.6s-476.6-213.38-476.6-476.6S-264.18 535.3-.96 535.3s476.6 213.38 476.6 476.6z" transform="matrix(1.2813 0 0 1.1659 -1.338 -177.403)" stroke="#f7c608" stroke-linecap="round" stroke-width="8.121" fill="none"/><path fill="#f7c608" d="M-122.384 1558.324l-2.194 6.8c-1.463 4.533-6.299 6.935-11.649 6.736-12.46-3.328-29.025-6.522-43.979-10.516l13.894-43.066c16.199 4.327 32.764 7.52 44.344 9.383 4.985 1.331 7.627 5.73 6.164 10.263l-1.828 5.667m-105.039-26.827l2.194-6.8c1.463-4.533 6.297-6.934 11.282-5.603 12.095 4.462 26.683 9.59 42.883 13.917l-13.894 43.066c-14.954-3.995-29.907-7.989-43.25-12.784-4.618-2.464-5.796-11.396-4.334-15.93"/><path fill="#006233" d="M-130.905 1554.571l-1.572 4.873c-1.06 3.287-4.938 4.836-9.339 4.522-10.364-2.768-24.093-5.574-36.53-8.896l9.945-30.826c13.473 3.599 27.202 6.405 36.786 8.103 4.145 1.107 6.487 4.318 5.427 7.604l-1.317 4.08m-87.313-22.46l1.572-4.874c1.06-3.287 4.937-4.836 9.083-3.729 10.108 3.562 22.289 7.677 35.762 11.276l-9.945 30.826c-12.437-3.322-24.874-6.644-36.018-10.482-3.89-1.901-5.171-8.398-4.11-11.685"/><path fill="#f7c608" d="M-289.425 1504.467l-4.21 5.963c-2.806 3.974-8.19 5.039-13.262 3.478-10.926-6.388-25.832-13.698-38.944-21.363l26.663-37.762c14.204 8.304 29.11 15.615 39.645 20.37 4.37 2.555 5.544 7.452 2.738 11.427l-3.508 4.969m-92.484-52.663l4.21-5.962c2.806-3.975 8.189-5.04 12.56-2.485 10.224 7.381 22.634 16.04 36.84 24.344l-26.664 37.762c-13.112-7.666-26.224-15.33-37.542-23.351-3.669-3.55-2.034-12.421.772-16.396"/><path fill="#006233" d="M-296.438 1498.682l-3.017 4.273c-2.035 2.882-6.236 3.375-10.361 1.946-9.088-5.313-21.393-11.524-32.298-17.899l19.085-27.03c11.813 6.907 24.119 13.118 32.789 17.204 3.634 2.124 4.888 5.805 2.853 8.687l-2.526 3.578m-76.827-43.93l3.017-4.274c2.035-2.882 6.235-3.375 9.87-1.25 8.596 6.009 19.01 13.08 30.824 19.986l-19.086 27.029c-10.905-6.375-21.81-12.75-31.315-19.29-3.144-2.821-2.362-9.383-.327-12.265"/><path fill="#f7c608" d="M-433.004 1409.968l-5.885 4.642c-3.923 3.095-9.418 2.736-13.802-.062-8.507-8.93-20.546-19.763-30.754-30.478l37.273-29.4c11.058 11.608 23.098 22.443 31.734 29.706 3.403 3.571 3.013 8.572-.91 11.666l-4.905 3.868m-72.437-74.233l5.885-4.641c3.923-3.095 9.418-2.738 12.82.834 7.526 9.703 16.753 21.192 27.813 32.8l-37.273 29.399c-10.208-10.715-20.417-21.43-28.794-32.027-2.421-4.345 1.893-12.44 5.816-15.534"/><path fill="#006233" d="M-437.942 1402.62l-4.218 3.327c-2.845 2.243-7.028 1.64-10.544-.79-7.075-7.426-16.96-16.539-25.449-25.45l26.679-21.044c9.197 9.654 19.082 18.767 26.136 24.91 2.83 2.97 2.893 6.823.048 9.067l-3.53 2.785m-60.118-61.842l4.218-3.327c2.844-2.243 7.026-1.64 9.857 1.33 6.388 7.969 14.191 17.422 23.389 27.077l-26.68 21.043c-8.49-8.912-16.98-17.824-24.076-26.535-2.144-3.512.638-9.608 3.483-11.852"/><path fill="#f7c608" d="M-541.562 1282.506l-7.084 2.945c-4.722 1.964-9.884.212-13.224-3.597-5.398-10.748-13.596-24.229-20.073-37.127l44.864-18.655c7.017 13.972 15.216 27.454 21.254 36.636 2.16 4.299.237 8.997-4.485 10.96l-5.904 2.455m-46.524-89.793l7.084-2.946c4.722-1.964 9.883-.212 12.042 4.087 4.218 11.239 9.515 24.628 16.533 38.6l-44.865 18.656c-6.477-12.898-12.955-25.796-17.713-38.11-.978-4.79 5.667-11.45 10.39-13.415"/><path fill="#006233" d="M-544.026 1274.19l-5.077 2.11c-3.424 1.424-7.25-.228-9.872-3.46-4.49-8.938-11.153-20.216-16.54-30.943l32.113-13.354c5.836 11.62 12.5 22.899 17.367 30.6 1.795 3.576.663 7.289-2.76 8.713l-4.251 1.767m-38.54-74.746l5.077-2.111c3.424-1.424 7.25.227 9.046 3.803 3.663 9.283 8.224 20.353 14.061 31.974l-32.114 13.353c-5.387-10.727-10.775-21.454-14.887-31.63-.97-3.92 3.587-9.056 7.011-10.48"/><path fill="#f7c608" d="M-606.237 1132.389l-7.71 1.01c-5.139.674-9.549-2.33-11.575-6.84-1.852-11.697-5.545-26.734-7.768-40.77l48.824-6.402c2.408 15.206 6.1 30.243 9.053 40.602.74 4.678-2.558 8.693-7.697 9.367l-6.425.842m-16.844-98.084l7.709-1.01c5.14-.675 9.55 2.328 10.29 7.007.568 11.865 1.506 26.07 3.914 41.276l-48.824 6.402c-2.223-14.037-4.445-28.073-5.198-41.108.544-4.847 8.982-9.535 14.121-10.209"/><path fill="#006233" d="M-606.027 1123.777l-5.525.725c-3.726.488-6.887-2.077-8.402-5.85-1.54-9.728-4.443-22.257-6.292-33.93l34.948-4.583c2.003 12.646 4.905 25.175 7.19 33.812.617 3.891-1.619 7.164-5.345 7.653l-4.625.606m-13.84-81.6l5.524-.724c3.726-.488 6.886 2.076 7.503 5.968.64 9.846 1.59 21.637 3.593 34.285l-34.948 4.581c-1.848-11.674-3.697-23.348-4.492-34.166.283-4.01 6.245-7.77 9.97-8.26"/><path fill="#f7c608" d="M-621.793 971.734l-7.71-1.006c-5.14-.67-8.441-4.683-8.989-9.53 1.844-11.698 2.955-27.072 5.167-41.11l48.828 6.37c-2.396 15.207-3.508 30.583-3.882 41.278-.737 4.68-5.145 7.686-10.285 7.015l-6.424-.838m14.2-98.43l7.709 1.006c5.14.67 8.442 4.682 7.704 9.361-3.128 11.53-6.625 25.4-9.022 40.608l-48.828-6.37c2.213-14.038 4.425-28.076 7.737-40.776 2.023-4.512 11.57-6.847 16.71-6.177"/><path fill="#006233" d="M-618.926 963.525l-5.525-.72c-3.726-.487-5.965-3.758-6.25-7.767 1.532-9.729 2.626-22.495 4.466-34.17l34.95 4.56c-1.993 12.648-3.086 25.413-3.567 34.287-.613 3.891-3.771 6.459-7.498 5.972l-4.626-.603m11.98-81.843l5.525.721c3.726.486 5.965 3.757 5.351 7.649-2.432 9.612-5.171 21.169-7.165 33.817l-34.95-4.56c1.84-11.675 3.68-23.35 6.266-33.935 1.512-3.775 8.397-5.855 12.123-5.369"/><path fill="#f7c608" d="M-587.004 813.704l-7.086-2.941c-4.724-1.961-6.65-6.658-5.674-11.448 5.39-10.752 11.215-25.219 17.683-38.12l44.878 18.626c-7.007 13.977-12.833 28.444-16.503 38.61-2.156 4.301-7.316 6.057-12.04 4.096l-5.905-2.451m44.094-90.803l7.086 2.94c4.724 1.961 6.65 6.657 4.494 10.958-6.57 10.26-14.22 22.673-21.226 36.65l-44.878-18.627c6.468-12.902 12.936-25.804 20.046-37.141 3.337-3.81 13.22-3.604 17.944-1.643"/><path fill="#006233" d="M-581.712 806.562l-5.078-2.108c-3.425-1.421-4.56-5.134-3.593-9.053 4.482-8.942 9.483-20.91 14.863-31.64l32.123 13.332c-5.828 11.624-10.829 23.593-14.037 31.984-1.793 3.576-5.618 5.23-9.043 3.808l-4.251-1.764m36.828-75.457l5.079 2.108c3.424 1.421 4.56 5.133 2.767 8.71-5.31 8.599-11.516 18.986-17.343 30.611l-32.123-13.333c5.38-10.731 10.759-21.462 16.516-30.955 2.62-3.234 9.87-3.465 13.295-2.044"/><path fill="#f7c608" d="M-504.71 670.824l-5.89-4.638c-3.925-3.092-4.32-8.092-1.9-12.439 8.499-8.935 18.567-21.322 28.767-32.044l37.295 29.375c-11.049 11.614-21.118 24.003-27.786 32.817-3.4 3.574-8.895 3.936-12.82.843l-4.908-3.865m70.418-75.825l5.889 4.639c3.925 3.092 4.32 8.09.92 11.665-9.481 8.161-20.662 18.11-31.713 29.726l-37.295-29.376c10.2-10.721 20.4-21.443 30.732-30.499 4.381-2.8 13.801-.07 17.727 3.023"/><path fill="#006233" d="M-497.422 665.328l-4.22-3.324c-2.847-2.242-2.786-6.095-.646-9.608 7.07-7.43 15.573-17.633 24.056-26.55l26.696 21.026c-9.19 9.66-17.694 19.862-23.37 27.091-2.826 2.972-7.009 3.579-9.855 1.337l-3.533-2.783m58.695-62.962l4.22 3.324c2.847 2.242 2.787 6.094-.04 9.067-7.757 6.89-16.927 15.266-26.117 24.926l-26.696-21.026c8.484-8.918 16.967-17.835 25.43-25.468 3.515-2.432 10.543-.795 13.39 1.446"/><path fill="#f7c608" d="M-381.536 554.898l-4.215-5.96c-2.81-3.973-1.64-8.871 2.027-12.423 10.921-6.394 24.416-15.7 37.522-23.373l26.693 37.744c-14.198 8.312-27.694 17.619-36.82 24.367-4.37 2.558-9.754 1.497-12.563-2.476l-3.512-4.967m91.039-54.707l4.214 5.96c2.81 3.973 1.641 8.87-2.727 11.428-11.624 5.401-25.433 12.082-39.631 20.395l-26.692-37.745c13.106-7.673 26.212-15.347 38.929-21.388 5.07-1.564 13.264 3.47 16.073 7.444"/><path fill="#006233" d="M-372.841 551.492l-3.02-4.27c-2.038-2.881-.787-6.563 2.354-9.385 9.084-5.318 20.401-12.928 31.3-19.31l19.107 27.017c-11.808 6.914-23.125 14.523-30.809 20.005-3.633 2.127-7.834 1.637-9.87-1.244l-2.53-3.575m75.81-45.37l3.021 4.271c2.037 2.88.788 6.562-2.846 8.69-9.575 4.623-20.967 10.309-32.776 17.223l-19.105-27.017c10.9-6.382 21.8-12.764 32.284-17.919 4.125-1.432 10.362 1.939 12.399 4.82"/><path fill="#f7c608" d="M-227.467 475.278l-2.199-6.799c-1.466-4.532 1.173-8.932 5.79-11.4 12.459-3.336 28.288-8.807 43.239-12.81l13.927 43.056c-16.196 4.337-32.027 9.808-42.872 13.944-4.984 1.334-9.822-1.064-11.288-5.596l-1.832-5.665m104.288-29.16l2.199 6.799c1.466 4.532-1.172 8.932-6.156 10.267-12.825 2.203-28.142 5.074-44.34 9.411l-13.926-43.057c14.95-4.003 29.902-8.007 43.973-10.544 5.35-.202 11.653 6.729 13.119 11.261"/><path fill="#006233" d="M-218.07 474.239l-1.576-4.873c-1.063-3.285 1.277-6.498 5.165-8.4 10.361-2.775 23.576-7.176 36.01-10.506l9.97 30.82c-13.47 3.607-26.685 8.007-35.755 11.298-4.144 1.11-8.023-.437-9.086-3.723l-1.32-4.079m86.786-24.103l1.575 4.873c1.063 3.286-1.275 6.497-5.42 7.608-10.619 1.981-23.31 4.518-36.78 8.125l-9.969-30.82c12.434-3.33 24.87-6.66 36.524-8.918 4.402-.317 9.342 4.516 10.405 7.802"/><path fill="#f7c608" d="M-54.98 438.449l-.006-7.087c-.003-4.725 3.89-8.27 9.085-9.455 12.987-.008 29.87-1.2 45.454-1.21l.035 44.883c-16.883.01-33.766 1.202-45.453 2.39-5.195.004-9.095-3.537-9.099-8.261l-.004-5.906m109.094-1.25l.005 7.086c.004 4.725-3.89 8.27-9.084 8.274-12.988-1.173-28.574-2.344-45.459-2.333l-.034-44.883c15.585-.01 31.17-.02 45.458 1.152 5.196 1.178 9.098 9.444 9.101 14.168"/><path fill="#006233" d="M-45.642 439.86l-.004-5.079c-.003-3.425 3.237-5.907 7.556-6.737 10.802-.007 24.844-.843 37.805-.85l.026 32.126c-14.042.008-28.084.844-37.805 1.677-4.32.003-7.563-2.475-7.566-5.9l-.003-4.253m90.734-.884l.004 5.079c.002 3.425-3.236 5.907-7.557 5.91-10.802-.82-23.765-1.638-37.807-1.63l-.024-32.126c12.962-.008 25.924-.016 37.806.803 4.322.824 7.567 6.728 7.57 10.153"/><g><path fill="#f7c608" d="M110.278 446.369l2.129-6.817c1.42-4.545 6.232-6.984 11.584-6.828 12.494 3.23 29.089 6.293 44.08 10.17l-13.483 43.174c-16.24-4.2-32.837-7.263-44.435-9.034-4.997-1.292-7.681-5.67-6.262-10.214l1.774-5.681m105.298 25.998l-2.13 6.817c-1.418 4.545-6.23 6.984-11.228 5.692-12.138-4.366-26.775-9.379-43.017-13.578l13.484-43.174c14.992 3.876 29.984 7.753 43.372 12.442 4.643 2.428 5.906 11.35 4.487 15.895"/><path fill="#006233" d="M118.834 450.054l1.526-4.885c1.029-3.295 4.892-4.875 9.296-4.595 10.39 2.686 24.147 5.384 36.615 8.608l-9.65 30.903c-13.508-3.492-27.265-6.19-36.864-7.813-4.156-1.074-6.529-4.266-5.5-7.561l1.278-4.09m87.529 21.772l-1.526 4.886c-1.029 3.295-4.89 4.875-9.048 3.8-10.142-3.482-22.361-7.501-35.87-10.994l9.652-30.903c12.469 3.224 24.938 6.448 36.119 10.198 3.908 1.87 5.25 8.357 4.222 11.652"/></g><g><path fill="#f7c608" d="M277.82 498.92l4.152-5.996c2.769-3.996 8.142-5.103 13.229-3.582 10.987 6.301 25.961 13.494 39.146 21.055l-26.303 37.97c-14.282-8.191-29.258-15.384-39.838-20.056-4.394-2.52-5.614-7.409-2.846-11.406l3.461-4.996m92.982 51.932l-4.153 5.995c-2.769 3.997-8.141 5.105-12.536 2.584-10.294-7.3-22.786-15.861-37.07-24.053l26.303-37.97c13.184 7.562 26.369 15.124 37.763 23.055 3.702 3.52 2.152 12.404-.616 16.4"/><path fill="#006233" d="M284.887 504.649l2.977-4.297c2.007-2.897 6.203-3.423 10.342-2.026 9.137 5.24 21.502 11.354 32.466 17.643l-18.826 27.178c-11.879-6.812-24.243-12.926-32.951-16.943-3.655-2.096-4.944-5.767-2.936-8.665l2.492-3.597m77.242 43.323l-2.977 4.297c-2.007 2.897-6.202 3.424-9.857 1.327-8.653-5.94-19.134-12.928-31.013-19.742l18.827-27.178c10.966 6.29 21.931 12.578 31.498 19.043 3.171 2.796 2.451 9.364.444 12.261"/></g><g><path fill="#f7c608" d="M422.29 592.254l5.841-4.688c3.894-3.125 9.392-2.81 13.802-.047 8.592 8.862 20.733 19.601 31.043 30.236l-36.991 29.691c-11.169-11.52-23.311-22.26-32.016-29.454-3.437-3.545-3.094-8.548.8-11.673l4.867-3.907m73.14 73.66l-5.84 4.688c-3.894 3.125-9.392 2.811-12.828-.734-7.618-9.643-16.954-21.059-28.123-32.58l36.991-29.69c10.31 10.634 20.62 21.268 29.097 31.798 2.463 4.326-1.774 12.454-5.668 15.58"/><path fill="#006233" d="M427.299 599.563l4.186-3.36c2.823-2.265 7.011-1.695 10.55.706 7.146 7.37 17.117 16.406 25.69 25.25l-26.477 21.253c-9.289-9.581-19.26-18.616-26.372-24.703-2.857-2.947-2.957-6.8-.134-9.066l3.504-2.813m60.703 61.366l-4.186 3.36c-2.823 2.266-7.01 1.696-9.87-1.253-6.463-7.917-14.356-17.309-23.645-26.89l26.478-21.253c8.575 8.845 17.15 17.69 24.328 26.344 2.177 3.495-.547 9.613-3.37 11.879"/></g><g><path fill="#f7c608" d="M532.02 718.863l7.055-3.001c4.704-2.001 9.882-.29 13.258 3.492 5.5 10.705 13.826 24.121 20.426 36.968l-44.686 19.008c-7.15-13.916-15.476-27.333-21.602-36.467-2.2-4.282-.323-8.995 4.381-10.996l5.88-2.5m47.377 89.422l-7.055 3.002c-4.704 2-9.882.29-12.082-3.992-4.324-11.205-9.748-24.552-16.899-38.469l44.687-19.008c6.6 12.846 13.2 25.693 18.075 37.97 1.024 4.781-5.558 11.494-10.262 13.495"/><path fill="#006233" d="M534.562 727.16l5.057-2.151c3.41-1.45 7.252.17 9.905 3.381 4.575 8.903 11.345 20.128 16.834 30.812l-31.986 13.606c-5.946-11.574-12.716-22.799-17.657-30.461-1.83-3.561-.732-7.284 2.678-8.734l4.233-1.801m39.25 74.44l-5.057 2.15c-3.41 1.451-7.252-.17-9.082-3.731-3.752-9.254-8.418-20.288-14.365-31.863l31.986-13.605c5.49 10.684 10.98 21.369 15.188 31.512 1.007 3.913-3.5 9.084-6.91 10.535"/></g><g><path fill="#f7c608" d="M598.1 868.437l7.698-1.072c5.133-.714 9.571 2.255 11.64 6.75 1.963 11.681 5.799 26.689 8.155 40.707l-48.758 6.786c-2.553-15.186-6.389-30.194-9.439-40.529-.785-4.672 2.475-8.713 7.607-9.428l6.416-.893m17.777 97.95l-7.699 1.071c-5.132.715-9.57-2.254-10.356-6.926-.68-11.86-1.753-26.058-4.306-41.245l48.758-6.785c2.357 14.018 4.713 28.036 5.59 41.065-.498 4.852-8.89 9.606-14.023 10.32"/><path fill="#006233" d="M597.971 877.05l5.518-.768c3.72-.518 6.905 2.022 8.457 5.783 1.633 9.716 4.654 22.222 6.614 33.88l-34.9 4.858c-2.124-12.63-5.145-25.136-7.513-33.755-.653-3.886 1.551-7.176 5.272-7.694l4.62-.643m14.616 81.488l-5.518.768c-3.72.518-6.905-2.021-7.558-5.908-.735-9.841-1.797-21.625-3.92-34.256l34.9-4.857c1.96 11.66 3.92 23.319 4.819 34.13-.245 4.013-6.171 7.82-9.892 8.338"/></g><g><path fill="#f7c608" d="M615.21 1028.946l7.72.945c5.145.63 8.484 4.617 9.078 9.46-1.732 11.71-2.697 27.093-4.775 41.147l-48.885-5.985c2.252-15.225 3.217-30.608 3.49-41.306.692-4.684 5.07-7.726 10.217-7.096l6.432.788m-13.262 98.535l-7.719-.945c-5.146-.63-8.485-4.615-7.793-9.3 3.019-11.554 6.384-25.45 8.635-40.676l48.885 5.986c-2.079 14.054-4.157 28.108-7.349 40.834-1.979 4.527-11.504 6.937-16.65 6.307"/><path fill="#006233" d="M612.422 1037.177l5.531.678c3.73.456 6 3.71 6.325 7.716-1.44 9.74-2.413 22.514-4.142 34.202l-34.99-4.284c1.872-12.662 2.844-25.436 3.24-34.312.576-3.896 3.71-6.488 7.44-6.031l4.632.567m-11.2 81.931l-5.532-.677c-3.73-.457-6-3.71-5.423-7.606 2.34-9.63 4.97-21.208 6.842-33.872l34.991 4.285c-1.728 11.689-3.457 23.378-5.942 33.982-1.477 3.787-8.34 5.92-12.072 5.464"/></g><g><path fill="#f7c608" d="M582.018 1187.308l7.114 2.885c4.743 1.924 6.713 6.605 5.784 11.403-5.287 10.794-10.975 25.306-17.32 38.258l-45.055-18.272c6.873-14.031 12.56-28.544 16.134-38.739 2.115-4.317 7.258-6.113 12-4.19l5.93 2.404m-43.229 91.147l-7.114-2.885c-4.743-1.923-6.714-6.603-4.599-10.92 6.473-10.313 14.004-22.785 20.878-36.817l45.055 18.273c-6.345 12.952-12.69 25.904-19.692 37.297-3.3 3.837-13.186 3.708-17.929 1.785"/><path fill="#006233" d="M576.794 1194.491l5.098 2.068c3.439 1.394 4.61 5.098 3.68 9.025-4.397 8.977-9.284 20.984-14.56 31.756l-32.251-13.079c5.716-11.67 10.603-23.677 13.73-32.093 1.76-3.59 5.569-5.274 9.007-3.88l4.269 1.732m-36.11 75.744l-5.097-2.068c-3.439-1.395-4.61-5.097-2.85-8.689 5.227-8.64 11.334-19.075 17.05-30.746l32.25 13.08c-5.276 10.772-10.553 21.545-16.22 31.083-2.59 3.255-9.837 3.543-13.276 2.149"/></g><g><path fill="#f7c608" d="M501.035 1330.76l5.932 4.591c3.956 3.061 4.397 8.058 2.02 12.424-8.414 9.001-18.364 21.468-28.462 32.27l-37.573-29.08c10.938-11.702 20.889-24.17 27.473-33.035 3.365-3.6 8.857-4.006 12.812-.945l4.943 3.827m-69.693 76.377l-5.932-4.592c-3.955-3.061-4.398-8.057-1.032-11.657 9.403-8.237 20.49-18.273 31.429-29.975l37.573 29.08c-10.097 10.802-20.195 21.604-30.44 30.74-4.355 2.836-13.8.179-17.755-2.882"/><path fill="#006233" d="M493.799 1336.313l4.251 3.29c2.868 2.22 2.844 6.073.737 9.603-6.998 7.487-15.404 17.755-23.802 26.739l-26.895-20.815c9.098-9.732 17.504-20 23.11-27.274 2.8-2.994 6.976-3.634 9.843-1.415l3.56 2.755m-58.094 63.423l-4.252-3.291c-2.868-2.22-2.845-6.072-.045-9.067 7.69-6.95 16.78-15.398 25.878-25.131l26.895 20.815c-8.398 8.984-16.796 17.968-25.187 25.667-3.492 2.46-10.535.879-13.402-1.34"/></g><g><path fill="#f7c608" d="M378.968 1447.64l4.27 5.927c2.848 3.95 1.725 8.858-1.907 12.438-10.86 6.48-24.267 15.892-37.299 23.668l-27.05-37.532c14.118-8.424 27.525-17.837 36.587-24.656 4.344-2.592 9.738-1.574 12.585 2.377l3.56 4.939m-90.515 55.422l-4.271-5.926c-2.848-3.951-1.725-8.858 2.619-11.45 11.572-5.493 25.316-12.281 39.435-20.706l27.05 37.533c-13.033 7.776-26.065 15.552-38.724 21.693-5.056 1.605-13.296-3.365-16.144-7.316"/><path fill="#006233" d="M370.306 1451.114l3.06 4.247c2.065 2.865.85 6.556-2.265 9.403-9.032 5.39-20.277 13.088-31.115 19.555l-19.363-26.865c11.742-7.006 22.986-14.704 30.617-20.246 3.613-2.156 7.818-1.7 9.882 1.165l2.563 3.556m-75.375 45.965l-3.06-4.247c-2.065-2.865-.85-6.556 2.763-8.712 9.53-4.698 20.867-10.474 32.61-17.48l19.362 26.865c-10.84 6.467-21.679 12.935-32.112 18.172-4.112 1.465-10.38-1.857-12.445-4.721"/></g><g><path fill="#f7c608" d="M225.674 1528.497l2.264 6.78c1.509 4.521-1.088 8.942-5.681 11.446-12.427 3.435-28.204 9.03-43.116 13.15l-14.337-42.945c16.154-4.464 31.932-10.06 42.739-14.28 4.97-1.374 9.83.986 11.34 5.506l1.886 5.651m-104.008 29.98l-2.263-6.781c-1.51-4.52 1.086-8.941 6.057-10.315 12.804-2.304 28.094-5.296 44.249-9.76l14.336 42.945c-14.912 4.121-29.824 8.243-43.872 10.89-5.348.244-11.716-6.636-13.225-11.157"/><path fill="#006233" d="M216.287 1529.61l1.623 4.86c1.094 3.277-1.215 6.507-5.085 8.44-10.335 2.857-23.508 7.362-35.91 10.79l-10.262-30.74c13.435-3.714 26.608-8.218 35.646-11.58 4.133-1.143 8.027.374 9.121 3.651l1.358 4.069m-86.553 24.785l-1.622-4.86c-1.094-3.277 1.213-6.507 5.348-7.65 10.6-2.065 23.266-4.702 36.702-8.415l10.261 30.74c-12.402 3.428-24.805 6.855-36.437 9.206-4.4.352-9.386-4.442-10.48-7.72"/></g><g><path fill="#f7c608" d="M53.53 1566.85l.073 7.087c.048 4.724-3.812 8.3-8.994 9.526-12.987.11-29.856 1.435-45.44 1.568l-.461-44.882c16.881-.144 33.752-1.469 45.427-2.75 5.194-.044 9.127 3.467 9.176 8.191l.06 5.906m-109.073 2.11l-.072-7.087c-.049-4.725 3.81-8.301 9.004-8.345 12.999 1.07 28.595 2.119 45.478 1.975l.46 44.882c-15.583.133-31.167.266-45.464-.794-5.207-1.137-9.187-9.371-9.236-14.096"/><path fill="#006233" d="M44.179 1565.512l.052 5.08c.035 3.424-3.18 5.932-7.491 6.796-10.801.092-24.834 1.038-37.794 1.148l-.331-32.126c14.04-.12 28.073-1.066 37.785-1.975 4.32-.037 7.586 2.416 7.622 5.84l.043 4.253m-90.718 1.6l-.052-5.08c-.035-3.425 3.18-5.933 7.5-5.97 10.81.735 23.778 1.452 37.82 1.332l.33 32.126c-12.961.11-25.923.221-37.812-.505-4.329-.79-7.63-6.668-7.665-10.093"/></g></svg>