<svg xmlns="http://www.w3.org/2000/svg" xmlns:xlink="http://www.w3.org/1999/xlink" height="60" width="90" version="1.0" viewBox="-2100 -1470 525 350"><defs><path id="a" d="M0 0a31.5 35 0 000-70A31.5 35 0 000 0m0-13a18.5 22 0 000-44 18.5 22 0 000 44" fill-rule="evenodd"/><path id="c" d="M-31.5 0h13v-26h28a22 22 0 000-44h-40zm13-39h27a9 9 0 000-18h-27z" fill-rule="evenodd"/><clipPath id="b"><path d="M-31.5 0v-70h63V0zM0-47v12h31.5v-12z"/></clipPath><g id="f" fill="#fff"><g id="e"><path id="d" transform="rotate(18 0 -1)" d="M0-1v1h.5"/><use xlink:href="#d" transform="scale(-1 1)" width="100%" height="100%"/></g><use xlink:href="#e" transform="rotate(72)" width="100%" height="100%"/><use xlink:href="#e" transform="rotate(-72)" width="100%" height="100%"/><use xlink:href="#e" transform="rotate(144)" width="100%" height="100%"/><use xlink:href="#e" transform="rotate(-144)" width="100%" height="100%"/></g></defs><path fill="#d7141a" d="M-2100-1470h525v350h-525z"/><path fill="#fff" d="M-2100-1470h525v175h-525z"/><path d="M-1837.5-1295l-262.5-175v350z" fill="#11457e"/></svg>