<?xml version="1.0" encoding="UTF-8" standalone="no"?>
<!-- Created with Inkscape (http://www.inkscape.org/) -->

<svg
   xmlns:dc="http://purl.org/dc/elements/1.1/"
   xmlns:cc="http://creativecommons.org/ns#"
   xmlns:rdf="http://www.w3.org/1999/02/22-rdf-syntax-ns#"
   xmlns:svg="http://www.w3.org/2000/svg"
   xmlns="http://www.w3.org/2000/svg"
   xmlns:sodipodi="http://sodipodi.sourceforge.net/DTD/sodipodi-0.dtd"
   xmlns:inkscape="http://www.inkscape.org/namespaces/inkscape"
   width="1100"
   height="700"
   id="svg2"
   version="1.1"
   inkscape:version="0.48.4 r9939"
   sodipodi:docname="Carpenthia 2.svg">
  <defs
     id="defs4" />
  <sodipodi:namedview
     id="base"
     pagecolor="#ffffff"
     bordercolor="#666666"
     borderopacity="1.0"
     inkscape:pageopacity="0.0"
     inkscape:pageshadow="2"
     inkscape:zoom="0.1767767"
     inkscape:cx="970.34078"
     inkscape:cy="284.9935"
     inkscape:document-units="px"
     inkscape:current-layer="g3021"
     showgrid="false"
     fit-margin-top="0"
     fit-margin-left="0"
     fit-margin-right="0"
     fit-margin-bottom="0"
     inkscape:window-width="1680"
     inkscape:window-height="988"
     inkscape:window-x="-8"
     inkscape:window-y="-8"
     inkscape:window-maximized="1" />
  <metadata
     id="metadata7">
    <rdf:RDF>
      <cc:Work
         rdf:about="">
        <dc:format>image/svg+xml</dc:format>
        <dc:type
           rdf:resource="http://purl.org/dc/dcmitype/StillImage" />
        <dc:title></dc:title>
      </cc:Work>
    </rdf:RDF>
  </metadata>
  <g
     inkscape:label="Layer 1"
     inkscape:groupmode="layer"
     id="layer1"
     transform="translate(-1241.4286,-382.36218)">
    <g
       id="g3021"
       transform="matrix(10,0,0,10,1241.4286,382.36218)">
      <rect
         id="rect3009"
         height="55.756847"
         width="110"
         x="0"
         y="0"
         style="fill:#003380;fill-opacity:1;stroke:none" />
      <rect
         id="rect3011"
         height="28.000357"
         width="110"
         y="42"
         x="0"
         style="fill:#da251d;fill-opacity:1" />
      <rect
         id="rect3013"
         height="18.525747"
         width="110"
         y="34.645828"
         x="0"
         style="fill:#ffffff" />
      <g
         id="g4314"
         transform="matrix(0.125,0,0,0.125,371.9875,98.199999)" />
      <g
         id="g4595"
         transform="matrix(0.91502007,0,0,0.91502007,-12.816678,-109.59483)">
        <g
           transform="matrix(0.03137996,0,0,0.03137996,60.287832,141.14149)"
           id="#c10005ff">
          <path
             style="fill:#000000;fill-opacity:1"
             inkscape:connector-curvature="0"
             d="m 0,0 909,0 0,908.19 c -1.43,22.3 -3.21,44.73 -8.61,66.5 -8.34,36.04 -24.48,71.31 -51.4,97.27 -24.12,23.87 -56.66,37.9 -89.99,42.7 -24.81,3.77 -49.99,2.4 -74.99,2.98 -41.67,0.63 -83.34,0.69 -125.01,1.05 -8.13,0.48 -16.41,0.37 -24.32,2.6 -10.87,3.06 -22.1,5.1 -32.46,9.76 -7.71,3.53 -15.07,8.02 -21.19,13.95 -6.01,6.03 -10.75,13.32 -13.9,21.24 -4.21,10.72 -5.48,22.31 -5.77,33.76 l -13.8,0 c -0.13,-11.23 -1.41,-22.59 -5.51,-33.12 -4.69,-12.68 -13.74,-23.7 -25.33,-30.68 -11.65,-7.34 -25.14,-10.64 -38.39,-13.75 -10.07,-3.43 -20.81,-3.51 -31.33,-3.8 -28.67,-0.24 -57.34,-0.35 -86.02,-0.5 -28.58,-0.8 -57.19,-0.34 -85.77,-1.11 -32.56,-1.25 -65.56,-9.17 -92.99,-27.3 -24.18,-15.6 -43.01,-38.57 -55.67,-64.25 C 10.89,993.99 3.53,958.94 1.15,924.01 0.28,917.1 0.73,910.12 0,903.21 L 0,0 m 462.15,14.39 c 0.15,9.54 -0.4,19.07 -0.29,28.61 0.01,114.67 -0.02,229.33 0,344 -0.3,19.34 0.74,38.67 0.01,58 -0.06,152.01 0.05,304 -0.02,456 0.26,41.67 -0.05,83.31 0.01,125 0.21,39.97 -0.47,79.99 0.5,119.93 12.07,-18.9 33.53,-29.46 54.75,-34.53 7.89,-1.65 15.48,-4.6 23.5,-5.62 16.75,-1.53 33.59,-1.1 50.39,-1.33 23.33,-0.35 46.69,0.24 70,-0.71 15.66,-0.05 31.33,-0.17 47,-0.34 9.01,-0.22 18.05,0.12 27.05,-0.58 26.28,-0.99 52.75,-6.95 75.84,-19.86 30.18,-16.56 52.37,-45.21 64.92,-76.91 9.33,-22.69 14.48,-46.91 17.05,-71.25 2.71,-25.18 1.45,-50.53 1.74,-75.8 -0.02,-281.54 0.03,-563.07 -0.03,-844.61 -144.14,-0.05 -288.28,-0.04 -432.42,0 M 11.22,15.21 c 0.14,48.6 0.03,97.19 0.06,145.79 0.12,4.02 -0.51,8.19 0.77,12.09 -0.42,0.06 -1.25,0.18 -1.67,0.24 0.11,50.75 -0.15,101.5 0.13,152.25 0.17,51.21 -0.14,102.44 0.15,153.65 0.04,45.26 0,90.51 0.02,135.77 0.03,5.48 -0.34,10.99 0.45,16.45 l -0.67,0.01 c 0.17,50.03 0.1,100.08 0.03,150.12 l 0.7,0.01 c -0.98,6.76 -0.39,13.61 -0.55,20.42 -0.07,34 -0.05,68 -0.15,102 -0.31,9.12 1.01,18.18 1.92,27.24 l 0.84,0.03 c 0.74,20.4 5.62,40.46 11.78,59.86 3.59,11.79 9.23,22.79 14.57,33.85 6.43,12.75 15.51,23.9 24.94,34.53 3.33,3.36 7.04,6.31 10.49,9.56 11.64,10.26 25.52,17.5 39.67,23.66 13.7,5.99 28.48,8.94 43.21,11.05 22.5,3.67 45.42,0.58 68.05,2.65 41.68,0.16 83.37,0.13 125.06,0.37 3.61,0.76 7.29,0.95 10.98,0.85 8.38,-0.24 16.32,2.76 24.39,4.58 14.35,3.8 29.16,8.08 40.89,17.61 6.82,4.76 12.16,11.22 16.77,18.07 -1.38,-1.27 -2.7,-2.6 -4.06,-3.87 2.62,3.75 5.36,7.49 7.11,11.76 0.28,-2.61 1.09,-5.15 1.2,-7.76 0.07,-72.19 0,-144.39 0.04,-216.58 l -0.72,-0.02 c 0.46,-40.48 0.07,-80.97 0.2,-121.45 0.14,-9.42 -0.41,-18.86 0.52,-28.25 l -0.92,-0.02 c 0.52,-5.56 0.2,-11.15 0.24,-16.72 0,-44.54 -0.03,-89.08 0.02,-133.61 0.33,-27.13 0.05,-54.27 0.14,-81.4 -0.12,-23.79 0.24,-47.6 -0.19,-71.39 0.04,-50.59 0.06,-101.2 -0.01,-151.79 -0.41,-0.29 -1.22,-0.86 -1.63,-1.15 0.46,0.02 1.36,0.05 1.82,0.07 0.02,-45.25 0.01,-90.49 0,-135.74 0.03,-5.75 -0.19,-11.52 0.47,-17.25 l -0.89,-0.02 c 0.15,-1.57 0.26,-3.14 0.29,-4.71 C 447.62,116.8 447.69,65.58 447.65,14.36 306.1,14.34 164.55,14.37 23,14.35 19.08,14.46 15,13.82 11.22,15.21 z"
             id="path4193" />
          <path
             style="fill:#c10005;stroke:#c10005;stroke-width:1.0006386;stroke-miterlimit:4;stroke-opacity:1;stroke-dasharray:none"
             inkscape:connector-curvature="0"
             d="m 793.19,44.2 c 0.77,-0.86 2.08,-0.77 3.11,-1.15 2.45,5.45 5.19,10.94 5.13,17.08 -0.1,6.86 1.11,13.78 4.43,19.84 4.67,-3.1 6.95,-8.44 10.93,-12.26 4.17,-4.54 8.42,-11.23 15.46,-10.55 0.66,8.42 -0.17,16.85 -0.04,25.28 -0.06,7.34 3.07,14.25 3.45,21.54 -1.11,11.81 -5.64,22.9 -10.04,33.8 -1.27,3.13 -4.33,5.62 -4.3,9.18 -0.8,7.34 3.34,13.9 4.03,21.08 1.26,13.36 2.8,26.7 4.92,39.93 0.05,16.02 1.21,32.15 -0.78,48.1 0.42,5.46 2.02,10.87 4.86,15.58 5.37,7.76 8.02,16.92 11.74,25.5 3.6,8.03 6.79,16.38 8.16,25.12 0.26,12.66 2.17,25.22 2.96,37.85 -1.05,3.59 -0.56,7.3 -0.05,10.94 0.54,11.31 1.38,22.61 1.11,33.94 0.24,13.33 -1.59,26.63 -1,39.97 0.69,9.21 2.38,18.33 2.58,27.58 1.05,7.16 1.69,14.38 3.15,21.47 1.77,10.9 2.08,21.96 2.59,32.97 1.04,10.96 1.14,22.07 0.06,33.04 -0.22,7.98 -0.22,15.97 -0.33,23.96 -0.18,8.72 0.22,17.51 -1.4,26.13 -1.11,8.92 -0.48,17.94 -0.66,26.91 -0.27,5.2 1.37,10.17 2.1,15.26 2.43,14.84 6.56,29.56 6.33,44.71 0.06,5.67 0.15,11.35 0.04,17.02 -0.58,6.44 -4.36,12.08 -9.33,16.04 -1.92,-4.41 -3.96,-8.77 -6.71,-12.73 -5.33,-7.92 -5.21,-18.43 -11.49,-25.8 -0.75,0.22 -2.26,0.68 -3.01,0.91 -0.09,4.25 1.39,8.33 1.36,12.57 0,5.01 2.28,9.63 3.1,14.52 1.08,6.57 4.18,12.65 4.71,19.35 0.68,10.36 1.21,20.72 1,31.12 -0.27,6.36 1.3,12.61 1.16,18.97 -0.04,6.66 0.14,13.34 -0.44,19.99 -1.27,13.67 -0.75,27.49 1.22,41.08 1.16,12.96 2.28,25.92 3.36,38.9 1.2,6.51 1.45,13.29 4.08,19.46 2.13,5.28 2.78,10.95 2.92,16.6 1.46,9.6 3.26,19.22 2.67,28.99 0.84,9.87 -3.08,19.26 -7.59,27.8 -1.08,2.2 -3.48,3.17 -5.34,4.59 -4.93,3.61 -10.14,6.95 -15.89,9.1 -6.59,2.43 -13.67,0.7 -20.47,0.73 -12.23,0.11 -24.45,-0.07 -36.68,0.1 -3.79,5.4 -2.63,12.23 -3.68,18.39 -6.8,1.04 -13.02,-3.47 -16.46,-9.01 -2.11,-2.92 -3.48,-6.37 -6.06,-8.93 -7.97,-1.91 -15.82,-5.16 -24.19,-4.19 -6.99,0.03 -12.16,5.06 -17.62,8.68 -2.66,1.61 -4.74,5.07 -8.27,4.23 -2.68,-2.38 -2.28,-6.27 -2.32,-9.49 -0.12,-5.32 1.38,-10.44 2.17,-15.65 -2.59,-0.14 -5.19,-0.14 -7.76,0.17 -2.01,0.17 -4.02,0.32 -6.01,0.48 -0.29,-3.27 -0.55,-6.54 -0.57,-9.81 2.9,-8.19 5.15,-16.62 8.34,-24.72 -4.58,-1.84 -10.19,-3.88 -14.68,-0.77 -2.52,-7.38 3.09,-13.58 5.62,-20.03 1.57,-4.67 5.62,-7.82 8.01,-12.02 -1.76,0.04 -3.51,0.1 -5.25,0.17 1.85,-5.34 2.63,-11.28 6.21,-15.82 6.19,-8.92 17.54,-13.42 28.21,-12.38 5.83,-0.31 10.95,2.89 16.64,3.35 7.89,3.14 14.77,8.6 20.04,15.22 2.3,2.79 4.56,5.64 7.4,7.92 -0.82,-4.79 -4.17,-8.44 -6.5,-12.52 -2.89,-4.39 -4.76,-9.35 -7.53,-13.8 -1.78,-3.44 -5.53,-5.03 -7.94,-7.9 -2.18,-2.34 -3.64,-5.19 -5.19,-7.94 -2.43,-3.49 -6.11,-6.01 -8.06,-9.86 -2.27,-4.27 -5.75,-7.73 -7.86,-12.08 -3.88,-7.41 -6.03,-15.55 -9.83,-23 -7.14,2.98 -13.22,8.03 -20.51,10.61 -3.79,3.66 -8.3,6.44 -12.25,9.86 -5.04,8.15 -10.7,16.12 -13.51,25.4 -2.72,6.36 -3.29,13.31 -5.53,19.81 -1.81,5.26 -1.75,10.9 -2.72,16.34 -1.37,10.92 2.89,21.31 3.94,32.04 0.88,5.83 1.3,11.77 0.73,17.65 -1.47,7.95 -1.72,16.25 -4.95,23.78 -2.33,4.99 -4.34,10.55 -9.06,13.83 -8.88,6.31 -20.23,9.52 -31.07,7.7 -5.67,-1.19 -10.3,-4.9 -15.29,-7.61 -5.06,-0.46 -9.76,1.93 -14.67,2.7 -9.41,1.12 -19.31,2.16 -28.44,-1.02 -5.72,-1.93 -11.71,-3.23 -17.05,-6.13 -4.26,-2.08 -7.63,-5.54 -11.8,-7.77 -4.46,3.57 -9,7.15 -14.13,9.71 -5.6,2.69 -11.94,1.49 -17.91,1.76 -4.66,0.3 -9.39,-1.07 -13.95,0.25 -2.63,0.62 -5.23,1.32 -7.88,1.78 -1.71,-3.91 2.23,-6.45 4.2,-9.24 0.85,-4.45 0.89,-9 0.95,-13.51 -0.01,-3.92 1.24,-7.69 1.3,-11.6 -3.29,0.31 -6.45,1.28 -9.66,1.95 -1.99,-0.28 -3.94,-0.73 -5.92,-0.98 0.12,-2.01 0.05,-4.02 0.21,-6 1.97,-3.29 5.65,-5.33 7.02,-9.02 1.51,-3.43 1.28,-7.28 2.37,-10.82 1.72,-4.74 5.4,-8.39 7.69,-12.83 0.3,-2.14 0.16,-4.3 0.21,-6.44 -2.89,2.46 -5.96,5.08 -9.77,5.87 -0.86,-6.8 -2.96,-15.3 2.5,-20.75 4.01,-3.3 6.59,-7.95 10.8,-11.05 -3.34,-0.72 -6.7,-0.12 -10.05,-0.08 -3.84,-1.5 -7.65,-3.09 -11.39,-4.81 2.43,-2.54 3.98,-6.21 7.5,-7.43 4.01,-1.9 9.05,-1.2 12.58,-4.12 4.96,-6.83 10.76,-14.54 19.58,-16.16 4.22,-0.96 8.26,-2.95 12.65,-2.97 4.35,-0.2 8.55,1.07 12.76,1.99 6.48,1.67 13.25,3.66 18.29,8.32 2.52,2.14 4.37,4.93 6.18,7.68 4.14,6.01 5.63,13.46 10.46,19.05 0.19,-12.94 0.84,-25.86 0.81,-38.8 -0.21,-4.77 1.62,-9.27 1.94,-13.99 0.58,-7.39 2.56,-14.58 3.43,-21.93 0.75,-5.32 3.32,-10.15 4.19,-15.44 2.86,-9.97 4.2,-20.45 8.77,-29.85 5.84,-12.68 8.97,-26.93 18.23,-37.77 3.94,-4.52 5.94,-10.41 10.31,-14.59 3.69,-3.68 7.04,-7.67 10.24,-11.77 7.81,-2.48 13.81,-8.36 21.02,-12.05 10.81,-6.97 21.47,-14.28 31.08,-22.86 4.61,-3.75 8.77,-8.02 13.43,-11.71 4.79,-4 7.64,-9.65 10.85,-14.87 1.1,-1.64 0.73,-3.71 0.95,-5.56 -4.82,0.71 -6.79,5.39 -9.67,8.66 -2.58,3.08 -4.65,6.62 -7.77,9.23 -7.77,6.6 -15.89,12.8 -24.18,18.72 -8.8,4.15 -16.8,9.74 -24.47,15.68 -2.88,3.47 -6.34,6.88 -11.15,7.13 -4.59,-7.88 -7.48,-16.56 -11.97,-24.48 -2.12,-5.26 -5.2,-10.19 -6.16,-15.85 -1.29,-3.72 -1.28,-7.71 -2.45,-11.45 -1.63,-5.21 -0.12,-10.74 -1.2,-16.01 -1.5,-5.36 -1.51,-10.96 -2.5,-16.41 -0.23,-8.73 -0.95,-17.81 2.48,-26.08 2.72,-6.21 3.4,-13.01 4.58,-19.61 1.56,-7.43 6.4,-13.53 8.93,-20.6 5.59,-16.56 11.48,-33.02 17.99,-49.23 1.27,-3.06 1.3,-6.71 3.46,-9.34 5.59,-1.95 11.48,-2.63 17.26,-3.73 7.83,-2.68 16.15,-3.37 24.07,-5.7 7.03,-1.11 13.38,-4.53 20.29,-6.07 8.64,-2 16.17,-6.85 24.02,-10.75 -13.83,2.62 -27.17,7.23 -40.7,10.99 -7.74,1.04 -14.96,4.34 -22.72,5.27 -9,1.25 -17.86,4.02 -27.02,3.68 -11.16,-0.2 -22.46,0.7 -33.43,-1.84 -7.17,-0.31 -14.33,-1.77 -21.51,-1.09 -9.29,1.67 -18.82,0.2 -28.1,1.93 -6.94,1.29 -14.09,1.27 -21.09,0.54 -8.81,-1.24 -14.26,-9.08 -20.47,-14.59 -3.91,-2.05 -8.24,-3.4 -11.73,-6.2 -3.39,-4.67 -5.65,-10.11 -6.95,-15.72 -0.73,-3.22 -1.81,-6.36 -3.43,-9.23 -1.72,3.56 -4.29,6.91 -8.51,7.38 -1.68,-2.72 -4.03,-4.93 -5.73,-7.62 -3.15,-7.5 -3.04,-16.24 0.46,-23.61 2.88,-3.71 5.62,-8.01 10.15,-9.86 6,-2.83 12.81,-1.99 19.21,-2.82 3.76,-0.34 7.2,-2.21 11.01,-2.29 5.05,-0.3 9.92,-1.8 14.91,-2.56 7.99,-0.92 15.01,-5.16 22.54,-7.68 4.46,-1.52 8.5,-3.98 12.68,-6.12 5.92,-3.26 12.37,-5.47 18.05,-9.17 7.06,-3.67 14,-7.66 20.21,-12.68 7.43,-5.59 16.16,-9.33 23.02,-15.67 0.05,0.9 0.14,2.7 0.19,3.59 9.76,-4.2 18.68,-10.13 27.02,-16.66 8.26,-6.06 14.84,-14.04 20.81,-22.29 2.19,-4.52 4.38,-9.04 6.21,-13.72 -4.39,2.05 -7.02,6.36 -11.02,8.99 -5.37,5.27 -10.85,10.44 -16.5,15.43 -3.61,3.37 -6.79,7.18 -10.51,10.45 -4.74,4.23 -8.77,9.38 -14.38,12.52 2.31,-5 6.07,-9.11 9.61,-13.27 4.86,-5.75 7,-13.1 10.66,-19.55 4.86,-7.63 6.48,-16.68 8.92,-25.25 0.64,-5.83 2.38,-11.41 4.05,-17.01 0.73,-6.58 0.58,-13.26 -0.01,-19.84 -1.36,-4.89 -4.93,-8.65 -7.71,-12.75 -4.19,-5.71 -8.02,-11.81 -13.34,-16.56 -4.99,-3.76 -9.87,-7.68 -15.15,-11.03 -4.28,-2.97 -8.11,-6.55 -12.56,-9.29 -4.57,-3.11 -10.09,-4.99 -13.83,-9.21 -0.34,-1.26 -0.42,-2.57 -0.57,-3.86 4.91,-2.37 9.38,-5.5 14.08,-8.24 3.86,-2.51 8.69,-1.78 12.94,-3.13 16.77,-5.14 34.45,-1.82 51.65,-2.39 0.02,-0.33 0.06,-0.98 0.08,-1.31 -3.68,-0.28 -7.31,-0.93 -10.93,-1.62 -12.81,-0.71 -25.67,0.62 -38.21,3.31 -6.8,0.93 -13.81,1.76 -20.05,4.81 -3.15,1.53 -5.71,5.46 -9.64,4.25 -4.71,-1.57 -8.38,-5.15 -12.78,-7.37 -7.1,-3.51 -12.64,-9.35 -18.3,-14.75 -3.42,-4.05 -6.98,-8.17 -9.27,-12.98 -0.34,-3.66 -0.59,-7.55 1.54,-10.76 2.75,-0.03 5.56,0.27 8.07,1.52 2.64,3.01 4.41,6.78 7.6,9.31 7.38,6.13 16.11,10.62 25.26,13.47 6.57,0.85 13.19,-0.23 19.78,-0.17 10.33,0.04 20.66,-0.1 31,0.11 6.61,0.02 12.79,2.78 19.33,3.43 -2.1,-3.24 -3.92,-6.8 -6.83,-9.39 -6.63,-4.41 -14.89,-4.29 -22.48,-5.54 -7.27,-1.06 -15.88,0.13 -21.59,-5.42 -4.74,-3.11 -9.2,-6.67 -13.16,-10.72 -3.63,-5.63 -8.38,-10.6 -10.87,-16.92 -1.79,-4.65 -3.93,-9.22 -4.99,-14.1 -0.08,-6.55 -0.97,-13.4 1.9,-19.54 0.86,-4.41 3.62,-9.1 8.73,-8.83 7.79,1.45 15.9,0.9 23.5,3.41 8.54,2.6 17.56,3.11 26.43,2.6 4.64,-0.84 8.72,-3.42 13.04,-5.2 3.92,-1.61 6.85,-4.85 10.69,-6.62 11.29,-6.37 24.2,-10.71 37.3,-9.91 6.03,-0.32 11.92,1.23 17.88,1.92 9.1,1.68 17.57,5.72 26.58,7.74 6.16,-5.98 13.06,-11.26 20.96,-14.72 4.96,-2.03 9.18,-5.51 12.77,-9.44 m 21.57,38.54 c -2.63,4.4 -2.57,9.72 -4.36,14.44 -1.94,8.59 -6.76,16.2 -12.4,22.84 -3.97,3.34 -8.14,6.53 -11.47,10.54 -0.7,2.59 0.6,5.05 1.27,7.48 1.93,7.17 4.14,14.26 5.83,21.49 3.3,5.53 2.13,12.35 -0.12,18.04 -2.1,6.82 -4.96,13.75 -10.55,18.47 -5.25,6.14 -12.17,10.41 -18.03,15.87 -2.02,2.76 -5.31,5.51 -4.47,9.28 6,-6.03 13.01,-10.9 20.01,-15.7 5.58,-2.44 9.84,-6.9 14.87,-10.19 3.29,-2.66 6.1,-5.83 9.12,-8.78 1.3,-1.08 1.38,-2.88 1.71,-4.42 0.39,-5.68 0.14,-11.45 -1.04,-17.03 -2.39,-6.92 -5.89,-13.47 -7.53,-20.65 -1.13,-3.67 -2.7,-7.2 -3.5,-10.96 6.65,-2.81 15.26,-3.08 19.8,-9.37 2.59,-8.8 1.15,-18.09 2.41,-27.08 0.23,-5.42 1.78,-10.59 3.37,-15.72 -1.66,0.33 -4.07,-0.46 -4.92,1.45 m -205.14,6.28 c -0.24,2.96 -0.76,6.42 1.73,8.63 2.68,1.38 5.73,0.65 8.55,0.24 -0.41,-3.04 0.93,-7.74 -2.66,-9.17 -2.34,-1.55 -5.55,-1.89 -7.62,0.3 M 716,90.35 c -4.03,0.06 -8.15,0.32 -11.83,2.1 0.21,0.79 0.62,2.37 0.82,3.16 5.9,1 11.88,0.35 17.81,0.73 3.72,1.26 7.52,3.01 10.42,5.71 0.48,3.52 -0.02,7.21 1.36,10.58 1.57,0.03 3.14,-0.15 4.71,-0.32 0.15,-4.64 1.78,-9.17 1.26,-13.83 -4.53,-2.76 -9.07,-5.62 -13.7,-8.22 -3.42,-2.11 -7.24,0.11 -10.85,0.09 m -4.2,18.45 c -1.39,1.52 -1.26,3.71 -1.66,5.6 3.99,1.02 8.46,2.16 12.38,0.27 1.38,-2.65 1.27,-5.71 0.21,-8.43 -3.78,-0.13 -7.81,0.19 -10.93,2.56 m 92.41,107.45 c -1.65,1.16 -3.13,2.53 -4.56,3.94 2.09,0.1 4.21,0.29 6.32,0.08 2.17,-0.71 3.41,-2.79 4.96,-4.32 2.47,-3.02 5.79,-5.81 6.21,-9.94 -6.43,0.11 -8.2,7.29 -12.93,10.24 m -30.23,0.63 c -1.76,3.35 -3.98,6.49 -4.81,10.26 -3.1,5.39 -5.73,11.08 -9.67,15.95 0.82,1.46 2.93,2.18 4.26,0.95 4.27,-3.82 9.32,-7.12 11.78,-12.51 2.93,-4.61 1.81,-10.22 1.92,-15.36 -1.17,0.24 -2.33,0.47 -3.48,0.71 m 37.62,8.75 c -1.93,3.72 -7.1,4.62 -8.06,8.92 1.97,-0.02 4,0.19 5.96,-0.19 4.18,-1.5 6.27,-5.71 8.88,-8.98 1.6,-1.95 2.43,-4.36 2.13,-6.89 -4.62,-1.16 -6.87,3.95 -8.91,7.14 m -83.24,-6.89 c -0.16,0.82 -0.49,2.48 -0.66,3.3 2.4,5.22 7.77,8.17 12.66,10.71 4.73,1.39 11.89,1.37 13.86,-4.18 -3.71,-1.06 -7.59,-0.64 -11.32,-1.37 -5.38,-1.79 -9.61,-5.79 -14.54,-8.46 m 82.77,24.42 c -2.5,3.64 -7.14,4.89 -9.6,8.58 3.41,0.03 6.85,-0.09 10.22,-0.65 1.89,-1.56 3.68,-3.26 5.36,-5.05 1.44,-2.75 2.28,-5.83 2.28,-8.94 -4.08,-0.39 -6.12,3.29 -8.26,6.06 m 2.56,13.55 c -2.92,5.21 -7.66,8.94 -11.75,13.16 5.47,-1.02 10.57,-3.66 14.77,-7.27 2.22,-2.66 2,-6.39 1.75,-9.64 -1.73,1.05 -3.82,1.82 -4.77,3.75 m -2.51,23.78 c 1.75,-0.02 3.51,-0.06 5.28,-0.13 0.26,-1.78 0.67,-3.53 1.12,-5.27 -3.36,-0.32 -6.92,1.62 -6.4,5.4 m -111.51,33.26 c -1.38,5.85 -2.79,11.83 -2.33,17.88 4.91,-4.12 7.81,-10.26 8.73,-16.54 1.01,-6.92 2.96,-13.86 1.88,-20.9 -3.17,6.32 -6.78,12.57 -8.28,19.56 m -39.97,41.01 c 1.98,-0.08 4.26,0.29 5.86,-1.2 2.28,-1.89 5.07,-3.56 5.96,-6.58 -4.89,0.57 -8.63,4.34 -11.82,7.78 m 186.78,16.89 c -0.94,6.75 -1.5,13.54 -1.29,20.35 -0.54,6.44 0.01,13.11 -2.45,19.24 -1.39,8.35 -4.93,16.25 -5.32,24.77 -0.39,4.39 -2.21,8.56 -2.2,13.01 -0.02,3.65 -0.19,7.33 0.28,10.98 1.29,8.31 2.41,16.99 7.06,24.22 0.41,-8.43 -1.3,-16.78 -0.81,-25.22 -0.68,-7.85 2.03,-15.34 3.24,-22.99 0.73,-4.39 1.98,-8.67 2.63,-13.06 0.93,-7.03 3.66,-13.76 3.74,-20.91 0.08,-9.38 0.63,-18.76 0.31,-28.14 0,-2.65 -1.02,-5.11 -1.93,-7.54 -1.24,1.65 -3.11,3.09 -3.26,5.29 m -89.11,67.53 c 1.85,1.16 3.61,2.45 5.42,3.7 -0.06,-2.02 -0.18,-4.02 -0.36,-6.02 -1.75,0.64 -3.4,1.49 -5.06,2.32 m -18.72,15.27 c 2.53,0.03 5.08,0.05 7.63,0.04 4.03,-4.35 5.97,-9.94 8.6,-15.14 -6.89,3.09 -12.71,8.39 -16.23,15.1 m -4.63,-11.54 c -1.66,-0.34 -3.31,-0.65 -4.96,-0.92 0.09,2.19 0.51,4.36 0.54,6.56 -1.85,2.2 -4.27,3.84 -6.23,5.91 -0.62,1.74 -0.92,3.57 -1.2,5.4 3.72,0.38 6.53,-2.29 9.23,-4.42 4.5,-3.59 6.47,-9.24 8.37,-14.47 -2,0.4 -3.91,1.09 -5.75,1.94 m 80.13,1.24 c -3.38,6.31 -1.6,13.59 -0.71,20.27 0.57,8.78 5.21,16.48 8.78,24.31 3.67,7.33 9.66,13.08 14.29,19.77 2.56,3.38 4.95,7.55 9.36,8.69 -0.22,-3.92 -3.34,-6.7 -5.08,-10.02 -3.76,-6.43 -8.02,-12.52 -12.03,-18.8 -1.49,-5.2 -4.99,-9.46 -6.63,-14.59 -2.59,-5.44 -2.83,-11.51 -3.6,-17.37 -0.79,-4.8 0.5,-9.61 0,-14.42 -1.55,0.52 -3.83,0.24 -4.38,2.16 M 710.8,452.8 c -3.03,3.39 -8.33,5.83 -7.71,11.17 4.88,-0.29 8.7,-3.7 11.45,-7.46 3.72,-3.66 5.16,-8.76 7.11,-13.44 -4.77,1.71 -7.27,6.46 -10.85,9.73 m -199.65,0.5 c -2.19,4.17 -1.9,9.08 0.39,13.15 0.63,2.24 3.34,1.66 5.1,2.08 -0.43,-5.72 -1.05,-11.41 -1.14,-17.15 -1.55,0.45 -4.03,-0.25 -4.35,1.92 m 153.99,10.82 c -3.03,1.92 -6.6,3.92 -7.09,7.88 4.27,-0.49 8.22,-2.67 10.88,-6.05 3.7,-4.92 7.31,-9.9 10.72,-15.02 -4.96,4.27 -9.08,9.48 -14.51,13.19 m 24,-2.93 c -2.86,2.6 -7.65,3.43 -8.47,7.76 2.25,-0.08 4.58,-0.34 6.19,-2.11 3.84,-3.69 7.48,-7.63 10.77,-11.81 -3.2,1.5 -5.88,3.82 -8.49,6.16 m -53.67,-2.66 c -5.63,4.52 -11.14,9.2 -17.15,13.22 0.04,1.54 0.1,3.09 0.18,4.63 2.28,0.19 4.64,0.55 6.87,-0.2 5.28,-1.35 8.1,-6.45 12.03,-9.77 2.71,-2.24 3.48,-5.85 3.32,-9.21 -1.83,0.07 -3.87,-0.11 -5.25,1.33 m 11.06,7.06 c -3.81,3.47 -8.69,5.66 -11.94,9.78 1.46,0.3 2.95,0.54 4.45,0.71 5.47,-1.64 8.95,-6.41 13.32,-9.74 3.15,-2.14 4.35,-5.98 5.62,-9.38 -4.69,1.49 -8.22,5.09 -11.45,8.63 m -21.99,151.93 c -1.23,5.82 -5.53,10.73 -5.26,16.84 -0.94,-0.35 -1.88,-0.7 -2.8,-1.04 -0.09,4.88 -0.62,9.86 1.03,14.57 0.95,0.24 1.91,0.49 2.88,0.74 0.79,3.77 2.05,7.41 3.52,10.98 0.67,0.05 2.02,0.15 2.69,0.2 -0.82,-1.42 -1.68,-2.82 -2.5,-4.23 0.7,-1.91 1.36,-3.84 1.94,-5.78 -0.63,-0.12 -1.9,-0.37 -2.53,-0.49 -0.02,-0.51 -0.07,-1.51 -0.09,-2.02 1.72,0.6 3.44,1.21 5.2,1.73 -0.69,2.02 -1.98,4.16 -0.96,6.32 1.23,0.36 2.5,0.59 3.76,0.89 -1.05,0.1 -2.1,0.21 -3.14,0.3 0.28,1.93 0.6,3.85 0.94,5.79 -0.92,0.01 -2.76,0.04 -3.68,0.06 0.78,0.93 1.58,1.87 2.39,2.81 1.4,-2.19 3.76,-3.12 6.14,-3.87 1.78,1.83 2.51,4.14 2.28,6.69 0.56,-0.05 1.68,-0.13 2.23,-0.18 1.2,-9.99 2.13,-20.03 1.9,-30.11 -3.46,2.88 -4.03,7.5 -6.1,11.27 -1.73,-0.52 -3.57,-1.03 -4.86,-2.35 1.36,-9.71 1.06,-19.6 -0.2,-29.31 -1.6,0.06 -3.19,0.12 -4.78,0.19 m 50.61,73.59 c -6.2,4.49 -13.08,8.05 -18.78,13.21 -7.02,5.04 -13.78,10.48 -19.56,16.93 3.02,0.43 6.06,-0.21 8.63,-1.85 6.06,-3.77 11.81,-8.07 17.07,-12.9 2.39,-2.3 4.62,-4.81 7.49,-6.51 7.78,-5.08 14.06,-12.11 21.95,-17.02 -6.5,0.31 -11.18,5.48 -16.8,8.14 m -62.58,65.37 c -1.53,1.44 -1.7,3.68 -2.14,5.63 1.33,1.48 4.66,2.13 5.52,-0.14 3.03,-6.04 7.72,-11 11.96,-16.19 -5.4,3.1 -11.14,5.98 -15.34,10.7 m 178.25,9.65 c -0.36,5.14 -0.47,10.4 0.65,15.48 0.52,-0.05 1.57,-0.14 2.09,-0.19 0.11,-5.97 0.29,-11.95 -0.14,-17.9 -0.88,0.85 -1.77,1.7 -2.6,2.61 m -11.73,10.67 c -1.16,5.21 -2.89,10.28 -3.97,15.51 7.37,-2.48 9.16,-11.65 7.72,-18.43 -1.56,0.57 -3.49,0.96 -3.75,2.92 m -11.4,0.73 c -1.85,4.81 -0.99,10.27 -3.27,14.96 -1.82,3.61 -4.03,7.02 -5.87,10.63 5.73,-1.38 11.93,-5.03 13.1,-11.29 0.3,-5.11 0.08,-10.24 -0.29,-15.33 -1.26,0.16 -2.8,-0.11 -3.67,1.03 m -12.83,6.22 c -0.46,3.7 -3.31,6.35 -4.43,9.8 -2.08,6.02 -6.4,10.88 -9.48,16.39 5.39,-0.42 11.74,-3.13 13.18,-8.87 1.79,-5.72 3.94,-11.49 3.84,-17.58 -1.04,0.08 -2.08,0.17 -3.11,0.26 m -15.57,6.71 c -3.01,5.13 -3.86,11.35 -7.7,16.01 -1.96,2.52 -4.04,5.09 -4.68,8.31 2.68,-0.67 5.75,-0.96 7.58,-3.31 6.28,-5 8.36,-13.56 8.39,-21.25 -1.21,0.07 -2.4,0.15 -3.59,0.24 m -18.44,9.23 c 0.25,8.24 -7.64,13.31 -8.89,21.04 4.81,-1.27 10.97,-3.02 12.28,-8.56 1.12,-4.95 2.7,-10.24 1.28,-15.26 -1.58,0.89 -3.12,1.84 -4.67,2.78 m -14.25,0.98 c -2.38,4.07 -3.56,8.76 -6.31,12.64 -3.44,5 -6.66,10.62 -6.07,16.93 3.46,-1.3 6.88,-2.84 9.76,-5.2 4.16,-3.1 5.22,-8.5 6.75,-13.14 1.45,-4.09 0.13,-8.31 -0.79,-12.33 -1.14,0.31 -2.25,0.68 -3.34,1.1 m -200.59,70.92 c -3.16,0.95 -5.91,2.91 -8.47,4.94 -0.25,1.23 -0.42,2.47 -0.51,3.74 2.69,0.33 5.45,0 7.75,-1.52 3.36,-2.18 7.19,-3.38 10.9,-4.8 0.02,-0.84 0.06,-2.52 0.08,-3.36 -3.26,0.26 -6.52,0.49 -9.75,1 m 199.8,32.89 c 6.08,1.9 11.59,-2.79 17.54,-3.51 -3.7,-2.3 -8.24,-1.79 -12.36,-1.35 -2.2,1.02 -3.56,3.14 -5.18,4.86 m -213.92,0.44 c -0.42,1.25 -0.64,2.56 -0.89,3.88 5.81,0.37 10.87,-3.06 15.47,-6.17 -4.94,-0.47 -10.19,-0.27 -14.58,2.29 m 206.37,27.02 c 0.02,1.3 0.06,2.62 0.1,3.96 7.07,-1.64 14.19,-3.06 21.3,-4.53 -0.13,-0.38 -0.4,-1.15 -0.54,-1.53 -2.92,-1.09 -5.93,-2.38 -9.11,-2.06 -4.22,0.35 -7.94,2.52 -11.75,4.16 m -204.52,12.85 c -0.32,1.29 -0.39,2.63 -0.53,3.97 1.84,-0.18 4.04,0.38 5.49,-1.09 3,-2.45 6.45,-4.24 9.61,-6.45 -5.09,-0.36 -10.32,0.66 -14.57,3.57 m 212.32,19.55 c 0.57,0.97 -0.16,3.82 1.76,3.09 4.99,-1.01 11.38,-0.85 14.61,-5.48 -5.54,-1.01 -11.66,-1.17 -16.37,2.39 m -202.59,11.35 c 0.11,0.84 0.33,2.53 0.45,3.37 5.76,0.08 9.44,-4.9 12.79,-8.87 -5.06,-0.09 -9.24,2.79 -13.24,5.5 m 218.48,8.18 c 2.4,-0.86 4.61,-2.14 6.56,-3.78 -3.05,-0.47 -5.42,0.99 -6.56,3.78 z"
             id="path4195" />
          <path
             style="fill:#c10005"
             inkscape:connector-curvature="0"
             d="m 559.21,489.15 c 5.41,-1.58 10.9,-3.19 16.54,-3.56 4.89,0.92 9.39,3.4 14.48,3.33 12.53,2.04 25.2,2.78 37.8,4.25 -3.97,6.41 -3.93,14.17 -7.18,20.87 -2.23,4.51 -3.42,9.43 -4.54,14.31 -1.28,5.52 -0.73,11.48 -3.25,16.69 -2.71,6.76 -8.56,11.43 -13.4,16.61 -5.82,6.39 -13.07,11.26 -20.58,15.44 -2.49,1.27 -5.21,2.4 -8.05,2.33 -3.4,-1.52 -3.1,-8.26 -7.71,-7.18 -2.68,1.21 -4.97,3.15 -7.61,4.43 -2.32,0.21 -4.72,0.28 -6.97,-0.39 -2.33,-4.93 -2.69,-10.45 -3.25,-15.78 -3.77,-1.92 -7.91,-3.86 -10.23,-7.57 0.08,-2.28 0.67,-4.53 0.51,-6.82 -0.71,-4.83 -5.88,-8.02 -5.46,-13.11 -0.34,-2.76 0.68,-5.33 2.34,-7.47 2.7,-3.6 1.12,-8.38 2.87,-12.33 2.24,-9.01 8.83,-16.17 16.19,-21.46 2.14,-1.7 4.96,-1.88 7.5,-2.59 z"
             id="path4197" />
        </g>
        <g
           transform="matrix(0.03137996,0,0,0.03137996,60.287832,141.14149)"
           id="#ffffffff">
          <path
             style="fill:#ffffff"
             inkscape:connector-curvature="0"
             d="m 462.15,14.39 c 144.14,-0.04 288.28,-0.05 432.42,0 0.06,281.54 0.01,563.07 0.03,844.61 -0.29,25.27 0.97,50.62 -1.74,75.8 -2.57,24.34 -7.72,48.56 -17.05,71.25 -12.55,31.7 -34.74,60.35 -64.92,76.91 -23.09,12.91 -49.56,18.87 -75.84,19.86 -9,0.7 -18.04,0.36 -27.05,0.58 -15.67,0.17 -31.34,0.29 -47,0.34 -23.31,0.95 -46.67,0.36 -70,0.71 -16.8,0.23 -33.64,-0.2 -50.39,1.33 -8.02,1.02 -15.61,3.97 -23.5,5.62 -21.22,5.07 -42.68,15.63 -54.75,34.53 -0.97,-39.94 -0.29,-79.96 -0.5,-119.93 -0.06,-41.69 0.25,-83.33 -0.01,-125 0.07,-152 -0.04,-303.99 0.02,-456 0.73,-19.33 -0.31,-38.66 -0.01,-58 -0.02,-114.67 0.01,-229.33 0,-344 -0.11,-9.54 0.44,-19.07 0.29,-28.61 M 793.19,44.2 c -3.59,3.93 -7.81,7.41 -12.77,9.44 -7.9,3.46 -14.8,8.74 -20.96,14.72 -9.01,-2.02 -17.48,-6.06 -26.58,-7.74 -5.96,-0.69 -11.85,-2.24 -17.88,-1.92 -13.1,-0.8 -26.01,3.54 -37.3,9.91 -3.84,1.77 -6.77,5.01 -10.69,6.62 -4.32,1.78 -8.4,4.36 -13.04,5.2 -8.87,0.51 -17.89,0 -26.43,-2.6 -7.6,-2.51 -15.71,-1.96 -23.5,-3.41 -5.11,-0.27 -7.87,4.42 -8.73,8.83 -2.87,6.14 -1.98,12.99 -1.9,19.54 1.06,4.88 3.2,9.45 4.99,14.1 2.49,6.32 7.24,11.29 10.87,16.92 3.96,4.05 8.42,7.61 13.16,10.72 5.71,5.55 14.32,4.36 21.59,5.42 7.59,1.25 15.85,1.13 22.48,5.54 2.91,2.59 4.73,6.15 6.83,9.39 -6.54,-0.65 -12.72,-3.41 -19.33,-3.43 -10.34,-0.21 -20.67,-0.07 -31,-0.11 -6.59,-0.06 -13.21,1.02 -19.78,0.17 -9.15,-2.85 -17.88,-7.34 -25.26,-13.47 -3.19,-2.53 -4.96,-6.3 -7.6,-9.31 -2.51,-1.25 -5.32,-1.55 -8.07,-1.52 -2.13,3.21 -1.88,7.1 -1.54,10.76 2.29,4.81 5.85,8.93 9.27,12.98 5.66,5.4 11.2,11.24 18.3,14.75 4.4,2.22 8.07,5.8 12.78,7.37 3.93,1.21 6.49,-2.72 9.64,-4.25 6.24,-3.05 13.25,-3.88 20.05,-4.81 12.54,-2.69 25.4,-4.02 38.21,-3.31 3.62,0.69 7.25,1.34 10.93,1.62 -0.02,0.33 -0.06,0.98 -0.08,1.31 -17.2,0.57 -34.88,-2.75 -51.65,2.39 -4.25,1.35 -9.08,0.62 -12.94,3.13 -4.7,2.74 -9.17,5.87 -14.08,8.24 0.15,1.29 0.23,2.6 0.57,3.86 3.74,4.22 9.26,6.1 13.83,9.21 4.45,2.74 8.28,6.32 12.56,9.29 5.28,3.35 10.16,7.27 15.15,11.03 5.32,4.75 9.15,10.85 13.34,16.56 2.78,4.1 6.35,7.86 7.71,12.75 0.59,6.58 0.74,13.26 0.01,19.84 -1.67,5.6 -3.41,11.18 -4.05,17.01 -2.44,8.57 -4.06,17.62 -8.92,25.25 -3.66,6.45 -5.8,13.8 -10.66,19.55 -3.54,4.16 -7.3,8.27 -9.61,13.27 5.61,-3.14 9.64,-8.29 14.38,-12.52 3.72,-3.27 6.9,-7.08 10.51,-10.45 5.65,-4.99 11.13,-10.16 16.5,-15.43 4,-2.63 6.63,-6.94 11.02,-8.99 -1.83,4.68 -4.02,9.2 -6.21,13.72 -5.97,8.25 -12.55,16.23 -20.81,22.29 -8.34,6.53 -17.26,12.46 -27.02,16.66 -0.05,-0.89 -0.14,-2.69 -0.19,-3.59 -6.86,6.34 -15.59,10.08 -23.02,15.67 -6.21,5.02 -13.15,9.01 -20.21,12.68 -5.68,3.7 -12.13,5.91 -18.05,9.17 -4.18,2.14 -8.22,4.6 -12.68,6.12 -7.53,2.52 -14.55,6.76 -22.54,7.68 -4.99,0.76 -9.86,2.26 -14.91,2.56 -3.81,0.08 -7.25,1.95 -11.01,2.29 -6.4,0.83 -13.21,-0.01 -19.21,2.82 -4.53,1.85 -7.27,6.15 -10.15,9.86 -3.5,7.37 -3.61,16.11 -0.46,23.61 1.7,2.69 4.05,4.9 5.73,7.62 4.22,-0.47 6.79,-3.82 8.51,-7.38 1.62,2.87 2.7,6.01 3.43,9.23 1.3,5.61 3.56,11.05 6.95,15.72 3.49,2.8 7.82,4.15 11.73,6.2 6.21,5.51 11.66,13.35 20.47,14.59 7,0.73 14.15,0.75 21.09,-0.54 9.28,-1.73 18.81,-0.26 28.1,-1.93 7.18,-0.68 14.34,0.78 21.51,1.09 10.97,2.54 22.27,1.64 33.43,1.84 9.16,0.34 18.02,-2.43 27.02,-3.68 7.76,-0.93 14.98,-4.23 22.72,-5.27 13.53,-3.76 26.87,-8.37 40.7,-10.99 -7.85,3.9 -15.38,8.75 -24.02,10.75 -6.91,1.54 -13.26,4.96 -20.29,6.07 -7.92,2.33 -16.24,3.02 -24.07,5.7 -5.78,1.1 -11.67,1.78 -17.26,3.73 -2.16,2.63 -2.19,6.28 -3.46,9.34 -6.51,16.21 -12.4,32.67 -17.99,49.23 -2.53,7.07 -7.37,13.17 -8.93,20.6 -1.18,6.6 -1.86,13.4 -4.58,19.61 -3.43,8.27 -2.71,17.35 -2.48,26.08 0.99,5.45 1,11.05 2.5,16.41 1.08,5.27 -0.43,10.8 1.2,16.01 1.17,3.74 1.16,7.73 2.45,11.45 0.96,5.66 4.04,10.59 6.16,15.85 4.49,7.92 7.38,16.6 11.97,24.48 4.81,-0.25 8.27,-3.66 11.15,-7.13 7.67,-5.94 15.67,-11.53 24.47,-15.68 8.29,-5.92 16.41,-12.12 24.18,-18.72 3.12,-2.61 5.19,-6.15 7.77,-9.23 2.88,-3.27 4.85,-7.95 9.67,-8.66 -0.22,1.85 0.15,3.92 -0.95,5.56 -3.21,5.22 -6.06,10.87 -10.85,14.87 -4.66,3.69 -8.82,7.96 -13.43,11.71 -9.61,8.58 -20.27,15.89 -31.08,22.86 -7.21,3.69 -13.21,9.57 -21.02,12.05 -3.2,4.1 -6.55,8.09 -10.24,11.77 -4.37,4.18 -6.37,10.07 -10.31,14.59 -9.26,10.84 -12.39,25.09 -18.23,37.77 -4.57,9.4 -5.91,19.88 -8.77,29.85 -0.87,5.29 -3.44,10.12 -4.19,15.44 -0.87,7.35 -2.85,14.54 -3.43,21.93 -0.32,4.72 -2.15,9.22 -1.94,13.99 0.03,12.94 -0.62,25.86 -0.81,38.8 -4.83,-5.59 -6.32,-13.04 -10.46,-19.05 -1.81,-2.75 -3.66,-5.54 -6.18,-7.68 -5.04,-4.66 -11.81,-6.65 -18.29,-8.32 -4.21,-0.92 -8.41,-2.19 -12.76,-1.99 -4.39,0.02 -8.43,2.01 -12.65,2.97 -8.82,1.62 -14.62,9.33 -19.58,16.16 -3.53,2.92 -8.57,2.22 -12.58,4.12 -3.52,1.22 -5.07,4.89 -7.5,7.43 3.74,1.72 7.55,3.31 11.39,4.81 3.35,-0.04 6.71,-0.64 10.05,0.08 -4.21,3.1 -6.79,7.75 -10.8,11.05 -5.46,5.45 -3.36,13.95 -2.5,20.75 3.81,-0.79 6.88,-3.41 9.77,-5.87 -0.05,2.14 0.09,4.3 -0.21,6.44 -2.29,4.44 -5.97,8.09 -7.69,12.83 -1.09,3.54 -0.86,7.39 -2.37,10.82 -1.37,3.69 -5.05,5.73 -7.02,9.02 -0.16,1.98 -0.09,3.99 -0.21,6 1.98,0.25 3.93,0.7 5.92,0.98 3.21,-0.67 6.37,-1.64 9.66,-1.95 -0.06,3.91 -1.31,7.68 -1.3,11.6 -0.06,4.51 -0.1,9.06 -0.95,13.51 -1.97,2.79 -5.91,5.33 -4.2,9.24 2.65,-0.46 5.25,-1.16 7.88,-1.78 4.56,-1.32 9.29,0.05 13.95,-0.25 5.97,-0.27 12.31,0.93 17.91,-1.76 5.13,-2.56 9.67,-6.14 14.13,-9.71 4.17,2.23 7.54,5.69 11.8,7.77 5.34,2.9 11.33,4.2 17.05,6.13 9.13,3.18 19.03,2.14 28.44,1.02 4.91,-0.77 9.61,-3.16 14.67,-2.7 4.99,2.71 9.62,6.42 15.29,7.61 10.84,1.82 22.19,-1.39 31.07,-7.7 4.72,-3.28 6.73,-8.84 9.06,-13.83 3.23,-7.53 3.48,-15.83 4.95,-23.78 0.57,-5.88 0.15,-11.82 -0.73,-17.65 -1.05,-10.73 -5.31,-21.12 -3.94,-32.04 0.97,-5.44 0.91,-11.08 2.72,-16.34 2.24,-6.5 2.81,-13.45 5.53,-19.81 2.81,-9.28 8.47,-17.25 13.51,-25.4 3.95,-3.42 8.46,-6.2 12.25,-9.86 7.29,-2.58 13.37,-7.63 20.51,-10.61 3.8,7.45 5.95,15.59 9.83,23 2.11,4.35 5.59,7.81 7.86,12.08 1.95,3.85 5.63,6.37 8.06,9.86 1.55,2.75 3.01,5.6 5.19,7.94 2.41,2.87 6.16,4.46 7.94,7.9 2.77,4.45 4.64,9.41 7.53,13.8 2.33,4.08 5.68,7.73 6.5,12.52 -2.84,-2.28 -5.1,-5.13 -7.4,-7.92 -5.27,-6.62 -12.15,-12.08 -20.04,-15.22 -5.69,-0.46 -10.81,-3.66 -16.64,-3.35 -10.67,-1.04 -22.02,3.46 -28.21,12.38 -3.58,4.54 -4.36,10.48 -6.21,15.82 1.74,-0.07 3.49,-0.13 5.25,-0.17 -2.39,4.2 -6.44,7.35 -8.01,12.02 -2.53,6.45 -8.14,12.65 -5.62,20.03 4.49,-3.11 10.1,-1.07 14.68,0.77 -3.19,8.1 -5.44,16.53 -8.34,24.72 -0.61,3.88 -0.29,7.92 0.74,11.73 1.96,-0.77 3.91,-1.57 5.84,-2.4 2.57,-0.31 5.17,-0.31 7.76,-0.17 -0.79,5.21 -2.29,10.33 -2.17,15.65 0.04,3.22 -0.36,7.11 2.32,9.49 3.53,0.84 5.61,-2.62 8.27,-4.23 5.46,-3.62 10.63,-8.65 17.62,-8.68 8.37,-0.97 16.22,2.28 24.19,4.19 2.58,2.56 3.95,6.01 6.06,8.93 3.44,5.54 9.66,10.05 16.46,9.01 1.05,-6.16 -0.11,-12.99 3.68,-18.39 12.23,-0.17 24.45,0.01 36.68,-0.1 6.8,-0.03 13.88,1.7 20.47,-0.73 5.75,-2.15 10.96,-5.49 15.89,-9.1 1.86,-1.42 4.26,-2.39 5.34,-4.59 4.51,-8.54 8.43,-17.93 7.59,-27.8 0.59,-9.77 -1.21,-19.39 -2.67,-28.99 -0.14,-5.65 -0.79,-11.32 -2.92,-16.6 -2.63,-6.17 -2.88,-12.95 -4.08,-19.46 -1.08,-12.98 -2.2,-25.94 -3.36,-38.9 -1.97,-13.59 -2.49,-27.41 -1.22,-41.08 0.58,-6.65 0.4,-13.33 0.44,-19.99 0.14,-6.36 -1.43,-12.61 -1.16,-18.97 0.21,-10.4 -0.32,-20.76 -1,-31.12 -0.53,-6.7 -3.63,-12.78 -4.71,-19.35 -0.82,-4.89 -3.1,-9.51 -3.1,-14.52 0.03,-4.24 -1.45,-8.32 -1.36,-12.57 0.75,-0.23 2.26,-0.69 3.01,-0.91 6.28,7.37 6.16,17.88 11.49,25.8 2.75,3.96 4.79,8.32 6.71,12.73 4.97,-3.96 8.75,-9.6 9.33,-16.04 0.11,-5.67 0.02,-11.35 -0.04,-17.02 0.23,-15.15 -3.9,-29.87 -6.33,-44.71 -0.73,-5.09 -2.37,-10.06 -2.1,-15.26 0.18,-8.97 -0.45,-17.99 0.66,-26.91 1.62,-8.62 1.22,-17.41 1.4,-26.13 0.11,-7.99 0.11,-15.98 0.33,-23.96 1.08,-10.97 0.98,-22.08 -0.06,-33.04 -0.51,-11.01 -0.82,-22.07 -2.59,-32.97 -1.46,-7.09 -2.1,-14.31 -3.15,-21.47 -0.2,-9.25 -1.89,-18.37 -2.58,-27.58 -0.59,-13.34 1.24,-26.64 1,-39.97 0.27,-11.33 -0.57,-22.63 -1.11,-33.94 -0.51,-3.64 -1,-7.35 0.05,-10.94 -0.79,-12.63 -2.7,-25.19 -2.96,-37.85 -1.37,-8.74 -4.56,-17.09 -8.16,-25.12 -3.72,-8.58 -6.37,-17.74 -11.74,-25.5 -2.84,-4.71 -4.44,-10.12 -4.86,-15.58 1.99,-15.95 0.83,-32.08 0.78,-48.1 -2.12,-13.23 -3.66,-26.57 -4.92,-39.93 -0.69,-7.18 -4.83,-13.74 -4.03,-21.08 -0.03,-3.56 3.03,-6.05 4.3,-9.18 4.4,-10.9 8.93,-21.99 10.04,-33.8 -0.38,-7.29 -3.51,-14.2 -3.45,-21.54 -0.13,-8.43 0.7,-16.86 0.04,-25.28 -7.04,-0.68 -11.29,6.01 -15.46,10.55 -3.98,3.82 -6.26,9.16 -10.93,12.26 -3.32,-6.06 -4.53,-12.98 -4.43,-19.84 0.06,-6.14 -2.68,-11.63 -5.13,-17.08 -1.03,0.38 -2.34,0.29 -3.11,1.15 M 559.21,489.15 c -2.54,0.71 -5.36,0.89 -7.5,2.59 -7.36,5.29 -13.95,12.45 -16.19,21.46 -1.75,3.95 -0.17,8.73 -2.87,12.33 -1.66,2.14 -2.68,4.71 -2.34,7.47 -0.42,5.09 4.75,8.28 5.46,13.11 0.16,2.29 -0.43,4.54 -0.51,6.82 2.32,3.71 6.46,5.65 10.23,7.57 0.56,5.33 0.92,10.85 3.25,15.78 2.25,0.67 4.65,0.6 6.97,0.39 2.64,-1.28 4.93,-3.22 7.61,-4.43 4.61,-1.08 4.31,5.66 7.71,7.18 2.84,0.07 5.56,-1.06 8.05,-2.33 7.51,-4.18 14.76,-9.05 20.58,-15.44 4.84,-5.18 10.69,-9.85 13.4,-16.61 2.52,-5.21 1.97,-11.17 3.25,-16.69 1.12,-4.88 2.31,-9.8 4.54,-14.31 3.25,-6.7 3.21,-14.46 7.18,-20.87 -12.6,-1.47 -25.27,-2.21 -37.8,-4.25 -5.09,0.07 -9.59,-2.41 -14.48,-3.33 -5.64,0.37 -11.13,1.98 -16.54,3.56 z"
             id="path4200" />
          <path
             style="fill:#ffffff"
             inkscape:connector-curvature="0"
             d="m 814.76,82.74 c 0.85,-1.91 3.26,-1.12 4.92,-1.45 -1.59,5.13 -3.14,10.3 -3.37,15.72 -1.26,8.99 0.18,18.28 -2.41,27.08 -4.54,6.29 -13.15,6.56 -19.8,9.37 0.8,3.76 2.37,7.29 3.5,10.96 1.64,7.18 5.14,13.73 7.53,20.65 1.18,5.58 1.43,11.35 1.04,17.03 -0.33,1.54 -0.41,3.34 -1.71,4.42 -3.02,2.95 -5.83,6.12 -9.12,8.78 -5.03,3.29 -9.29,7.75 -14.87,10.19 -7,4.8 -14.01,9.67 -20.01,15.7 -0.84,-3.77 2.45,-6.52 4.47,-9.28 5.86,-5.46 12.78,-9.73 18.03,-15.87 5.59,-4.72 8.45,-11.65 10.55,-18.47 2.25,-5.69 3.42,-12.51 0.12,-18.04 -1.69,-7.23 -3.9,-14.32 -5.83,-21.49 -0.67,-2.43 -1.97,-4.89 -1.27,-7.48 3.33,-4.01 7.5,-7.2 11.47,-10.54 5.64,-6.64 10.46,-14.25 12.4,-22.84 1.79,-4.72 1.73,-10.04 4.36,-14.44 z"
             id="path4202" />
          <path
             style="fill:#ffffff"
             inkscape:connector-curvature="0"
             d="m 609.62,89.02 c 2.07,-2.19 5.28,-1.85 7.62,-0.3 3.59,1.43 2.25,6.13 2.66,9.17 -2.82,0.41 -5.87,1.14 -8.55,-0.24 -2.49,-2.21 -1.97,-5.67 -1.73,-8.63 z"
             id="path4204" />
          <path
             style="fill:#ffffff"
             inkscape:connector-curvature="0"
             d="m 716,90.35 c 3.61,0.02 7.43,-2.2 10.85,-0.09 4.63,2.6 9.17,5.46 13.7,8.22 0.52,4.66 -1.11,9.19 -1.26,13.83 -1.57,0.17 -3.14,0.35 -4.71,0.32 -1.38,-3.37 -0.88,-7.06 -1.36,-10.58 -2.9,-2.7 -6.7,-4.45 -10.42,-5.71 -5.93,-0.38 -11.91,0.27 -17.81,-0.73 -0.2,-0.79 -0.61,-2.37 -0.82,-3.16 3.68,-1.78 7.8,-2.04 11.83,-2.1 z"
             id="path4206" />
          <path
             style="fill:#ffffff"
             inkscape:connector-curvature="0"
             d="m 711.8,108.8 c 3.12,-2.37 7.15,-2.69 10.93,-2.56 1.06,2.72 1.17,5.78 -0.21,8.43 -3.92,1.89 -8.39,0.75 -12.38,-0.27 0.4,-1.89 0.27,-4.08 1.66,-5.6 z"
             id="path4208" />
          <path
             style="fill:#ffffff"
             inkscape:connector-curvature="0"
             d="m 804.21,216.25 c 4.73,-2.95 6.5,-10.13 12.93,-10.24 -0.42,4.13 -3.74,6.92 -6.21,9.94 -1.55,1.53 -2.79,3.61 -4.96,4.32 -2.11,0.21 -4.23,0.02 -6.32,-0.08 1.43,-1.41 2.91,-2.78 4.56,-3.94 z"
             id="path4210" />
          <path
             style="fill:#ffffff"
             inkscape:connector-curvature="0"
             d="m 773.98,216.88 c 1.15,-0.24 2.31,-0.47 3.48,-0.71 -0.11,5.14 1.01,10.75 -1.92,15.36 -2.46,5.39 -7.51,8.69 -11.78,12.51 -1.33,1.23 -3.44,0.51 -4.26,-0.95 3.94,-4.87 6.57,-10.56 9.67,-15.95 0.83,-3.77 3.05,-6.91 4.81,-10.26 z"
             id="path4212" />
          <path
             style="fill:#ffffff"
             inkscape:connector-curvature="0"
             d="m 811.6,225.63 c 2.04,-3.19 4.29,-8.3 8.91,-7.14 0.3,2.53 -0.53,4.94 -2.13,6.89 -2.61,3.27 -4.7,7.48 -8.88,8.98 -1.96,0.38 -3.99,0.17 -5.96,0.19 0.96,-4.3 6.13,-5.2 8.06,-8.92 z"
             id="path4214" />
          <path
             style="fill:#ffffff"
             inkscape:connector-curvature="0"
             d="m 728.36,218.74 c 4.93,2.67 9.16,6.67 14.54,8.46 3.73,0.73 7.61,0.31 11.32,1.37 -1.97,5.55 -9.13,5.57 -13.86,4.18 -4.89,-2.54 -10.26,-5.49 -12.66,-10.71 0.17,-0.82 0.5,-2.48 0.66,-3.3 z"
             id="path4216" />
          <path
             style="fill:#ffffff"
             inkscape:connector-curvature="0"
             d="m 811.13,243.16 c 2.14,-2.77 4.18,-6.45 8.26,-6.06 0,3.11 -0.84,6.19 -2.28,8.94 -1.68,1.79 -3.47,3.49 -5.36,5.05 -3.37,0.56 -6.81,0.68 -10.22,0.65 2.46,-3.69 7.1,-4.94 9.6,-8.58 z"
             id="path4218" />
          <path
             style="fill:#ffffff"
             inkscape:connector-curvature="0"
             d="m 813.69,256.71 c 0.95,-1.93 3.04,-2.7 4.77,-3.75 0.25,3.25 0.47,6.98 -1.75,9.64 -4.2,3.61 -9.3,6.25 -14.77,7.27 4.09,-4.22 8.83,-7.95 11.75,-13.16 z"
             id="path4220" />
          <path
             style="fill:#ffffff"
             inkscape:connector-curvature="0"
             d="m 811.18,280.49 c -0.52,-3.78 3.04,-5.72 6.4,-5.4 -0.45,1.74 -0.86,3.49 -1.12,5.27 -1.77,0.07 -3.53,0.11 -5.28,0.13 z"
             id="path4222" />
          <path
             style="fill:#ffffff"
             inkscape:connector-curvature="0"
             d="m 699.67,313.75 c 1.5,-6.99 5.11,-13.24 8.28,-19.56 1.08,7.04 -0.87,13.98 -1.88,20.9 -0.92,6.28 -3.82,12.42 -8.73,16.54 -0.46,-6.05 0.95,-12.03 2.33,-17.88 z"
             id="path4224" />
          <path
             style="fill:#ffffff"
             inkscape:connector-curvature="0"
             d="m 659.7,354.76 c 3.19,-3.44 6.93,-7.21 11.82,-7.78 -0.89,3.02 -3.68,4.69 -5.96,6.58 -1.6,1.49 -3.88,1.12 -5.86,1.2 z"
             id="path4226" />
          <path
             style="fill:#ffffff"
             inkscape:connector-curvature="0"
             d="m 846.48,371.65 c 0.15,-2.2 2.02,-3.64 3.26,-5.29 0.91,2.43 1.93,4.89 1.93,7.54 0.32,9.38 -0.23,18.76 -0.31,28.14 -0.08,7.15 -2.81,13.88 -3.74,20.91 -0.65,4.39 -1.9,8.67 -2.63,13.06 -1.21,7.65 -3.92,15.14 -3.24,22.99 -0.49,8.44 1.22,16.79 0.81,25.22 -4.65,-7.23 -5.77,-15.91 -7.06,-24.22 -0.47,-3.65 -0.3,-7.33 -0.28,-10.98 -0.01,-4.45 1.81,-8.62 2.2,-13.01 0.39,-8.52 3.93,-16.42 5.32,-24.77 2.46,-6.13 1.91,-12.8 2.45,-19.24 -0.21,-6.81 0.35,-13.6 1.29,-20.35 z"
             id="path4228" />
          <path
             style="fill:#ffffff"
             inkscape:connector-curvature="0"
             d="m 757.37,439.18 c 1.66,-0.83 3.31,-1.68 5.06,-2.32 0.18,2 0.3,4 0.36,6.02 -1.81,-1.25 -3.57,-2.54 -5.42,-3.7 z"
             id="path4230" />
          <path
             style="fill:#ffffff"
             inkscape:connector-curvature="0"
             d="m 738.65,454.45 c 3.52,-6.71 9.34,-12.01 16.23,-15.1 -2.63,5.2 -4.57,10.79 -8.6,15.14 -2.55,0.01 -5.1,-0.01 -7.63,-0.04 z"
             id="path4232" />
          <path
             style="fill:#ffffff"
             inkscape:connector-curvature="0"
             d="m 734.02,442.91 c 1.84,-0.85 3.75,-1.54 5.75,-1.94 -1.9,5.23 -3.87,10.88 -8.37,14.47 -2.7,2.13 -5.51,4.8 -9.23,4.42 0.28,-1.83 0.58,-3.66 1.2,-5.4 1.96,-2.07 4.38,-3.71 6.23,-5.91 -0.03,-2.2 -0.45,-4.37 -0.54,-6.56 1.65,0.27 3.3,0.58 4.96,0.92 z"
             id="path4234" />
          <path
             style="fill:#ffffff"
             inkscape:connector-curvature="0"
             d="m 814.15,444.15 c 0.55,-1.92 2.83,-1.64 4.38,-2.16 0.5,4.81 -0.79,9.62 0,14.42 0.77,5.86 1.01,11.93 3.6,17.37 1.64,5.13 5.14,9.39 6.63,14.59 4.01,6.28 8.27,12.37 12.03,18.8 1.74,3.32 4.86,6.1 5.08,10.02 -4.41,-1.14 -6.8,-5.31 -9.36,-8.69 -4.63,-6.69 -10.62,-12.44 -14.29,-19.77 -3.57,-7.83 -8.21,-15.53 -8.78,-24.31 -0.89,-6.68 -2.67,-13.96 0.71,-20.27 z"
             id="path4236" />
          <path
             style="fill:#ffffff"
             inkscape:connector-curvature="0"
             d="m 710.8,452.8 c 3.58,-3.27 6.08,-8.02 10.85,-9.73 -1.95,4.68 -3.39,9.78 -7.11,13.44 -2.75,3.76 -6.57,7.17 -11.45,7.46 -0.62,-5.34 4.68,-7.78 7.71,-11.17 z"
             id="path4238" />
          <path
             style="fill:#ffffff"
             inkscape:connector-curvature="0"
             d="m 511.15,453.3 c 0.32,-2.17 2.8,-1.47 4.35,-1.92 0.09,5.74 0.71,11.43 1.14,17.15 -1.76,-0.42 -4.47,0.16 -5.1,-2.08 -2.29,-4.07 -2.58,-8.98 -0.39,-13.15 z"
             id="path4240" />
          <path
             style="fill:#ffffff"
             inkscape:connector-curvature="0"
             d="m 665.14,464.12 c 5.43,-3.71 9.55,-8.92 14.51,-13.19 -3.41,5.12 -7.02,10.1 -10.72,15.02 -2.66,3.38 -6.61,5.56 -10.88,6.05 0.49,-3.96 4.06,-5.96 7.09,-7.88 z"
             id="path4242" />
          <path
             style="fill:#ffffff"
             inkscape:connector-curvature="0"
             d="m 689.14,461.19 c 2.61,-2.34 5.29,-4.66 8.49,-6.16 -3.29,4.18 -6.93,8.12 -10.77,11.81 -1.61,1.77 -3.94,2.03 -6.19,2.11 0.82,-4.33 5.61,-5.16 8.47,-7.76 z"
             id="path4244" />
          <path
             style="fill:#ffffff"
             inkscape:connector-curvature="0"
             d="m 635.47,458.53 c 1.38,-1.44 3.42,-1.26 5.25,-1.33 0.16,3.36 -0.61,6.97 -3.32,9.21 -3.93,3.32 -6.75,8.42 -12.03,9.77 -2.23,0.75 -4.59,0.39 -6.87,0.2 -0.08,-1.54 -0.14,-3.09 -0.18,-4.63 6.01,-4.02 11.52,-8.7 17.15,-13.22 z"
             id="path4246" />
          <path
             style="fill:#ffffff"
             inkscape:connector-curvature="0"
             d="m 646.53,465.59 c 3.23,-3.54 6.76,-7.14 11.45,-8.63 -1.27,3.4 -2.47,7.24 -5.62,9.38 -4.37,3.33 -7.85,8.1 -13.32,9.74 -1.5,-0.17 -2.99,-0.41 -4.45,-0.71 3.25,-4.12 8.13,-6.31 11.94,-9.78 z"
             id="path4248" />
          <path
             style="fill:#ffffff"
             inkscape:connector-curvature="0"
             d="m 624.54,617.52 c 1.59,-0.07 3.18,-0.13 4.78,-0.19 1.26,9.71 1.56,19.6 0.2,29.31 1.29,1.32 3.13,1.83 4.86,2.35 2.07,-3.77 2.64,-8.39 6.1,-11.27 0.23,10.08 -0.7,20.12 -1.9,30.11 -0.55,0.05 -1.67,0.13 -2.23,0.18 0.23,-2.55 -0.5,-4.86 -2.28,-6.69 -2.38,0.75 -4.74,1.68 -6.14,3.87 -0.81,-0.94 -1.61,-1.88 -2.39,-2.81 0.92,-0.02 2.76,-0.05 3.68,-0.06 -0.34,-1.94 -0.66,-3.86 -0.94,-5.79 1.04,-0.09 2.09,-0.2 3.14,-0.3 -1.26,-0.3 -2.53,-0.53 -3.76,-0.89 -1.02,-2.16 0.27,-4.3 0.96,-6.32 -1.76,-0.52 -3.48,-1.13 -5.2,-1.73 0.02,0.51 0.07,1.51 0.09,2.02 0.63,0.12 1.9,0.37 2.53,0.49 -0.58,1.94 -1.24,3.87 -1.94,5.78 0.82,1.41 1.68,2.81 2.5,4.23 -0.67,-0.05 -2.02,-0.15 -2.69,-0.2 -1.47,-3.57 -2.73,-7.21 -3.52,-10.98 -0.97,-0.25 -1.93,-0.5 -2.88,-0.74 -1.65,-4.71 -1.12,-9.69 -1.03,-14.57 0.92,0.34 1.86,0.69 2.8,1.04 -0.27,-6.11 4.03,-11.02 5.26,-16.84 z"
             id="path4250" />
          <path
             style="fill:#ffffff"
             inkscape:connector-curvature="0"
             d="m 675.15,691.11 c 5.62,-2.66 10.3,-7.83 16.8,-8.14 -7.89,4.91 -14.17,11.94 -21.95,17.02 -2.87,1.7 -5.1,4.21 -7.49,6.51 -5.26,4.83 -11.01,9.13 -17.07,12.9 -2.57,1.64 -5.61,2.28 -8.63,1.85 5.78,-6.45 12.54,-11.89 19.56,-16.93 5.7,-5.16 12.58,-8.72 18.78,-13.21 z"
             id="path4252" />
          <path
             style="fill:#ffffff"
             inkscape:connector-curvature="0"
             d="m 612.57,756.48 c 4.2,-4.72 9.94,-7.6 15.34,-10.7 -4.24,5.19 -8.93,10.15 -11.96,16.19 -0.86,2.27 -4.19,1.62 -5.52,0.14 0.44,-1.95 0.61,-4.19 2.14,-5.63 z"
             id="path4254" />
          <path
             style="fill:#ffffff"
             inkscape:connector-curvature="0"
             d="m 790.82,766.13 c 0.83,-0.91 1.72,-1.76 2.6,-2.61 0.43,5.95 0.25,11.93 0.14,17.9 -0.52,0.05 -1.57,0.14 -2.09,0.19 -1.12,-5.08 -1.01,-10.34 -0.65,-15.48 z"
             id="path4256" />
          <path
             style="fill:#ffffff"
             inkscape:connector-curvature="0"
             d="m 779.09,776.8 c 0.26,-1.96 2.19,-2.35 3.75,-2.92 1.44,6.78 -0.35,15.95 -7.72,18.43 1.08,-5.23 2.81,-10.3 3.97,-15.51 z"
             id="path4258" />
          <path
             style="fill:#ffffff"
             inkscape:connector-curvature="0"
             d="m 767.69,777.53 c 0.87,-1.14 2.41,-0.87 3.67,-1.03 0.37,5.09 0.59,10.22 0.29,15.33 -1.17,6.26 -7.37,9.91 -13.1,11.29 1.84,-3.61 4.05,-7.02 5.87,-10.63 2.28,-4.69 1.42,-10.15 3.27,-14.96 z"
             id="path4260" />
          <path
             style="fill:#ffffff"
             inkscape:connector-curvature="0"
             d="m 754.86,783.75 c 1.03,-0.09 2.07,-0.18 3.11,-0.26 0.1,6.09 -2.05,11.86 -3.84,17.58 -1.44,5.74 -7.79,8.45 -13.18,8.87 3.08,-5.51 7.4,-10.37 9.48,-16.39 1.12,-3.45 3.97,-6.1 4.43,-9.8 z"
             id="path4262" />
          <path
             style="fill:#ffffff"
             inkscape:connector-curvature="0"
             d="m 739.29,790.46 c 1.19,-0.09 2.38,-0.17 3.59,-0.24 -0.03,7.69 -2.11,16.25 -8.39,21.25 -1.83,2.35 -4.9,2.64 -7.58,3.31 0.64,-3.22 2.72,-5.79 4.68,-8.31 3.84,-4.66 4.69,-10.88 7.7,-16.01 z"
             id="path4264" />
          <path
             style="fill:#ffffff"
             inkscape:connector-curvature="0"
             d="m 720.85,799.69 c 1.55,-0.94 3.09,-1.89 4.67,-2.78 1.42,5.02 -0.16,10.31 -1.28,15.26 -1.31,5.54 -7.47,7.29 -12.28,8.56 1.25,-7.73 9.14,-12.8 8.89,-21.04 z"
             id="path4266" />
          <path
             style="fill:#ffffff"
             inkscape:connector-curvature="0"
             d="m 706.6,800.67 c 1.09,-0.42 2.2,-0.79 3.34,-1.1 0.92,4.02 2.24,8.24 0.79,12.33 -1.53,4.64 -2.59,10.04 -6.75,13.14 -2.88,2.36 -6.3,3.9 -9.76,5.2 -0.59,-6.31 2.63,-11.93 6.07,-16.93 2.75,-3.88 3.93,-8.57 6.31,-12.64 z"
             id="path4268" />
          <path
             style="fill:#ffffff"
             inkscape:connector-curvature="0"
             d="m 506.01,871.59 c 3.23,-0.51 6.49,-0.74 9.75,-1 -0.02,0.84 -0.06,2.52 -0.08,3.36 -3.71,1.42 -7.54,2.62 -10.9,4.8 -2.3,1.52 -5.06,1.85 -7.75,1.52 0.09,-1.27 0.26,-2.51 0.51,-3.74 2.56,-2.03 5.31,-3.99 8.47,-4.94 z"
             id="path4270" />
          <path
             style="fill:#ffffff"
             inkscape:connector-curvature="0"
             d="m 705.81,904.48 c 1.62,-1.72 2.98,-3.84 5.18,-4.86 4.12,-0.44 8.66,-0.95 12.36,1.35 -5.95,0.72 -11.46,5.41 -17.54,3.51 z"
             id="path4272" />
          <path
             style="fill:#ffffff"
             inkscape:connector-curvature="0"
             d="m 491.89,904.92 c 4.39,-2.56 9.64,-2.76 14.58,-2.29 -4.6,3.11 -9.66,6.54 -15.47,6.17 0.25,-1.32 0.47,-2.63 0.89,-3.88 z"
             id="path4274" />
          <path
             style="fill:#ffffff"
             inkscape:connector-curvature="0"
             d="m 698.26,931.94 c 3.81,-1.64 7.53,-3.81 11.75,-4.16 3.18,-0.32 6.19,0.97 9.11,2.06 0.14,0.38 0.41,1.15 0.54,1.53 -7.11,1.47 -14.23,2.89 -21.3,4.53 -0.04,-1.34 -0.08,-2.66 -0.1,-3.96 z"
             id="path4280" />
          <path
             style="fill:#ffffff"
             inkscape:connector-curvature="0"
             d="m 493.74,944.79 c 4.25,-2.91 9.48,-3.93 14.57,-3.57 -3.16,2.21 -6.61,4 -9.61,6.45 -1.45,1.47 -3.65,0.91 -5.49,1.09 0.14,-1.34 0.21,-2.68 0.53,-3.97 z"
             id="path4282" />
          <path
             style="fill:#ffffff"
             inkscape:connector-curvature="0"
             d="m 706.06,964.34 c 4.71,-3.56 10.83,-3.4 16.37,-2.39 -3.23,4.63 -9.62,4.47 -14.61,5.48 -1.92,0.73 -1.19,-2.12 -1.76,-3.09 z"
             id="path4284" />
          <path
             style="fill:#ffffff"
             inkscape:connector-curvature="0"
             d="m 503.47,975.69 c 4,-2.71 8.18,-5.59 13.24,-5.5 -3.35,3.97 -7.03,8.95 -12.79,8.87 -0.12,-0.84 -0.34,-2.53 -0.45,-3.37 z"
             id="path4286" />
          <path
             style="fill:#ffffff"
             inkscape:connector-curvature="0"
             d="m 721.95,983.87 c 1.14,-2.79 3.51,-4.25 6.56,-3.78 -1.95,1.64 -4.16,2.92 -6.56,3.78 z"
             id="path4288" />
        </g>
        <g
           transform="matrix(0.03137996,0,0,0.03137996,60.287832,141.14149)"
           style="fill:#2a7fff"
           id="#0000feff">
          <path
             style="fill:#2a7fff"
             inkscape:connector-curvature="0"
             d="M 11.22,15.21 C 15,13.82 19.08,14.46 23,14.35 c 141.55,0.02 283.1,-0.01 424.65,0.01 0.04,51.22 -0.03,102.44 0.03,153.66 -0.03,1.57 -0.14,3.14 -0.29,4.71 -142.81,-0.21 -285.62,0 -428.43,-0.11 -2.31,0 -4.62,0.12 -6.91,0.47 C 10.77,169.19 11.4,165.02 11.28,161 11.25,112.4 11.36,63.81 11.22,15.21 z"
             id="path4291" />
          <path
             style="fill:#2a7fff"
             inkscape:connector-curvature="0"
             d="m 10.51,325.58 c 145.16,0.09 290.32,-0.09 435.48,0.09 0.41,0.29 1.22,0.86 1.63,1.15 0.07,50.59 0.05,101.2 0.01,151.79 -143.87,0.12 -287.74,-0.01 -431.61,0.07 -1.8,0.05 -3.58,0.3 -5.36,0.55 -0.29,-51.21 0.02,-102.44 -0.15,-153.65 z"
             id="path4293" />
          <path
             style="fill:#2a7fff"
             inkscape:connector-curvature="0"
             d="m 10.46,631.46 0.67,-0.01 c 145.51,-0.1 291.03,0 436.55,-0.05 -0.05,44.53 -0.02,89.07 -0.02,133.61 -0.04,5.57 0.28,11.16 -0.24,16.72 -145.4,-0.2 -290.82,0.09 -436.23,-0.14 l -0.7,-0.01 c 0.07,-50.04 0.14,-100.09 -0.03,-150.12 z"
             id="path4295" />
          <path
             style="fill:#2a7fff"
             inkscape:connector-curvature="0"
             d="m 13.25,931.28 c 144.79,0.27 289.59,-0.08 434.37,0.17 l 0.72,0.02 c -0.04,72.19 0.03,144.39 -0.04,216.58 -0.11,2.61 -0.92,5.15 -1.2,7.76 -1.75,-4.27 -4.49,-8.01 -7.11,-11.76 1.36,1.27 2.68,2.6 4.06,3.87 -4.61,-6.85 -9.95,-13.31 -16.77,-18.07 -11.73,-9.53 -26.54,-13.81 -40.89,-17.61 -8.07,-1.82 -16.01,-4.82 -24.39,-4.58 -3.69,0.1 -7.37,-0.09 -10.98,-0.85 -41.69,-0.24 -83.38,-0.21 -125.06,-0.37 -22.63,-2.07 -45.55,1.02 -68.05,-2.65 -14.73,-2.11 -29.51,-5.06 -43.21,-11.05 -14.15,-6.16 -28.03,-13.4 -39.67,-23.66 -3.45,-3.25 -7.16,-6.2 -10.49,-9.56 -9.43,-10.63 -18.51,-21.78 -24.94,-34.53 -5.34,-11.06 -10.98,-22.06 -14.57,-33.85 -6.16,-19.4 -11.04,-39.46 -11.78,-59.86 z"
             id="path4297" />
        </g>
        <g
           transform="matrix(0.03137996,0,0,0.03137996,60.287832,141.14149)"
           style="fill:#ffdd55;fill-opacity:1"
           id="#e5b207ff">
          <path
             style="fill:#ffdd55;fill-opacity:1"
             inkscape:connector-curvature="0"
             d="m 10.38,173.33 c 0.42,-0.06 1.25,-0.18 1.67,-0.24 2.29,-0.35 4.6,-0.47 6.91,-0.47 142.81,0.11 285.62,-0.1 428.43,0.11 l 0.89,0.02 c -0.66,5.73 -0.44,11.5 -0.47,17.25 0.01,45.25 0.02,90.49 0,135.74 -0.46,-0.02 -1.36,-0.05 -1.82,-0.07 -145.16,-0.18 -290.32,0 -435.48,-0.09 -0.28,-50.75 -0.02,-101.5 -0.13,-152.25 z"
             id="path4300" />
          <path
             style="fill:#ffdd55;fill-opacity:1"
             inkscape:connector-curvature="0"
             d="m 10.66,479.23 c 1.78,-0.25 3.56,-0.5 5.36,-0.55 143.87,-0.08 287.74,0.05 431.61,-0.07 0.43,23.79 0.07,47.6 0.19,71.39 -0.09,27.13 0.19,54.27 -0.14,81.4 -145.52,0.05 -291.04,-0.05 -436.55,0.05 C 10.34,625.99 10.71,620.48 10.68,615 10.66,569.74 10.7,524.49 10.66,479.23 z"
             id="path4302" />
          <path
             style="fill:#ffdd55;fill-opacity:1"
             inkscape:connector-curvature="0"
             d="m 11.19,781.59 c 145.41,0.23 290.83,-0.06 436.23,0.14 l 0.92,0.02 c -0.93,9.39 -0.38,18.83 -0.52,28.25 -0.13,40.48 0.26,80.97 -0.2,121.45 -144.78,-0.25 -289.58,0.1 -434.37,-0.17 l -0.84,-0.03 c -0.91,-9.06 -2.23,-18.12 -1.92,-27.24 0.1,-34 0.08,-68 0.15,-102 0.16,-6.81 -0.43,-13.66 0.55,-20.42 z"
             id="path4304" />
          <path
             style="fill:#ffdd55;fill-opacity:1"
             inkscape:connector-curvature="0"
             d="m 690.33,982.91 c -1.03,-3.81 -1.35,-7.85 -0.74,-11.73 0.02,3.27 0.28,6.54 0.57,9.81 1.99,-0.16 4,-0.31 6.01,-0.48 -1.93,0.83 -3.88,1.63 -5.84,2.4 z"
             id="path4306" />
        </g>
      </g>
    </g>
  </g>
</svg>
