<?xml version="1.0" encoding="UTF-8" standalone="no"?>
<!DOCTYPE svg PUBLIC "-//W3C//DTD SVG 1.1//EN" "http://www.w3.org/Graphics/SVG/1.1/DTD/svg11.dtd">
<svg
   xmlns:dc="http://purl.org/dc/elements/1.1/"
   xmlns:cc="http://web.resource.org/cc/"
   xmlns:svg="http://www.w3.org/2000/svg"
   xmlns="http://www.w3.org/2000/svg"
   width="600px"
   height="400px"
   version="1.1"
   id="Flag_of_the_Coptic_People.svg">
  <g
    id="layer1">
    <rect
       style="opacity:1;fill:white;fill-opacity:1;stroke:none;stroke-width:10;stroke-miterlimit:4;stroke-dasharray:none;stroke-opacity:1"
       id="rect2067"
       width="600"
       height="400"
       x="0"
       y="0" />
    <rect
       style="opacity:1;fill:#000098;fill-opacity:1;stroke:none;stroke-width:10;stroke-miterlimit:4;stroke-dasharray:none;stroke-opacity:1"
       id="rect2062"
       width="600"
       height="67"
       x="0"
       y="166.5" />
    <rect
       style="opacity:1;fill:#000098;fill-opacity:1;stroke:none;stroke-width:10;stroke-miterlimit:4;stroke-dasharray:none;stroke-opacity:1"
       id="rect2064"
       width="67"
       height="400"
       x="266.5"
       y="0" />
    <rect
       style="fill:black;fill-opacity:1;stroke:none;stroke-width:10;stroke-miterlimit:4;stroke-dasharray:none;stroke-opacity:1"
       id="rect2004"
       width="126.26862"
       height="40.173302"
       x="236.86571"
       y="120.68533" />
    <path
       style="fill:#fdec10;fill-opacity:1"
       d="M 363.00085,153.37584 L 363.13432,151.28306 L 360.15838,152.26521 C 357.86922,153.0207 356.62605,153.01688 354.77145,152.24868 C 352.47325,151.29674 346.41,144.4716 346.41,142.83657 C 346.41,142.04682 348.27799,139.43534 352.56052,134.23808 L 354.94805,131.34056 L 351.30619,129.688 C 346.72661,127.60994 344.42095,127.60994 339.84137,129.688 L 336.19951,131.34056 L 338.58704,134.23808 C 345.16867,142.22552 344.95552,141.6986 343.53701,146.47527 C 342.832,148.84927 341.8269,151.30769 341.30344,151.93841 C 339.96066,153.55638 336.88516,153.36205 335.25069,151.55597 C 333.63201,149.76735 333.39851,145.01848 334.90456,144.51646 C 335.65077,144.26773 335.5333,143.76147 334.48645,142.71462 C 333.10271,141.33088 332.95837,141.33088 331.57463,142.71462 C 330.52778,143.76147 330.41031,144.26773 331.15652,144.51646 C 331.72731,144.70673 332.19432,146.08976 332.19432,147.58987 C 332.19432,150.69182 329.6419,153.56821 327.58852,152.78026 C 325.68341,152.0492 323.83216,147.06131 323.83216,142.65935 C 323.83216,139.48192 324.09116,138.86952 325.43491,138.86952 C 326.31642,138.86952 327.19333,139.33653 327.38359,139.90732 C 327.63233,140.65354 328.13859,140.53606 329.18544,139.48922 C 330.56918,138.10548 330.56918,137.96113 329.18544,136.57739 C 328.13859,135.53054 327.63233,135.41307 327.38359,136.15929 C 327.19333,136.73008 326.31642,137.19709 325.43491,137.19709 C 323.62921,137.19709 323.15519,134.21725 324.86997,133.64565 C 325.61618,133.39692 325.49871,132.89066 324.45186,131.84381 C 323.06812,130.46007 322.92377,130.46007 321.54004,131.84381 C 320.49319,132.89066 320.37571,133.39692 321.12193,133.64565 C 322.83671,134.21725 322.36269,137.19709 320.55698,137.19709 C 319.67548,137.19709 318.79856,136.73008 318.6083,136.15929 C 318.35957,135.41307 317.8533,135.53054 316.80645,136.57739 C 315.42272,137.96113 315.42272,138.10548 316.80645,139.48922 C 317.8533,140.53606 318.35957,140.65354 318.6083,139.90732 C 318.79856,139.33653 319.67548,138.86952 320.55698,138.86952 C 321.90074,138.86952 322.15973,139.48192 322.15973,142.65935 C 322.15973,147.06131 320.30848,152.0492 318.40337,152.78026 C 316.35,153.56821 313.79757,150.69182 313.79757,147.58987 C 313.79757,146.08976 314.26458,144.70673 314.83537,144.51646 C 315.58159,144.26773 315.46411,143.76147 314.41727,142.71462 C 313.03353,141.33088 312.88918,141.33088 311.50545,142.71462 C 310.45859,143.76147 310.34112,144.26773 311.08734,144.51646 C 311.65813,144.70673 312.12514,146.08976 312.12514,147.58987 C 312.12514,150.43594 310.03943,153.08519 307.79877,153.08519 C 304.68758,153.08519 301.00124,145.29868 301.41065,139.59182 C 301.64615,136.30918 301.90335,135.91619 303.97203,135.67817 C 305.61459,135.48917 306.27163,135.78782 306.27163,136.72344 C 306.27163,137.44386 306.83607,138.03331 307.52595,138.03331 C 308.21583,138.03331 308.78028,137.46886 308.78028,136.77898 C 308.78028,136.0891 309.34472,135.52466 310.0346,135.52466 C 310.72448,135.52466 311.28892,134.96021 311.28892,134.27033 C 311.28892,133.58045 310.72448,133.01601 310.0346,133.01601 C 309.34472,133.01601 308.78028,132.45156 308.78028,131.76169 C 308.78028,131.07181 308.21583,130.50736 307.52595,130.50736 C 306.83607,130.50736 306.27163,131.0968 306.27163,131.81723 C 306.27163,132.75284 305.61459,133.05149 303.97203,132.8625 C 302.16583,132.65467 301.61567,132.10451 301.40784,130.29831 C 301.21884,128.65574 301.5175,127.99871 302.45311,127.99871 C 303.17354,127.99871 303.76298,127.43427 303.76298,126.74439 C 303.76298,126.05451 303.19853,125.49007 302.50866,125.49007 C 301.81878,125.49007 301.25433,124.92562 301.25433,124.23574 C 301.25433,123.54586 300.68989,122.98142 300.00001,122.98142 C 299.31013,122.98142 298.74568,123.54586 298.74568,124.23574 C 298.74568,124.92562 298.18124,125.49007 297.49136,125.49007 C 296.80148,125.49007 296.23704,126.05451 296.23704,126.74439 C 296.23704,127.43427 296.82648,127.99871 297.5469,127.99871 C 298.48252,127.99871 298.78117,128.65574 298.59217,130.29831 C 298.38435,132.10451 297.83418,132.65467 296.02798,132.8625 C 294.38542,133.05149 293.72839,132.75284 293.72839,131.81723 C 293.72839,131.0968 293.16394,130.50736 292.47406,130.50736 C 291.78419,130.50736 291.21974,131.07181 291.21974,131.76169 C 291.21974,132.45156 290.65529,133.01601 289.96542,133.01601 C 289.27554,133.01601 288.71109,133.58045 288.71109,134.27033 C 288.71109,134.96021 289.27554,135.52466 289.96542,135.52466 C 290.65529,135.52466 291.21974,136.0891 291.21974,136.77898 C 291.21974,137.46886 291.78419,138.03331 292.47406,138.03331 C 293.16394,138.03331 293.72839,137.44386 293.72839,136.72344 C 293.72839,135.78782 294.38542,135.48917 296.02798,135.67817 C 298.09666,135.91619 298.35386,136.30918 298.58936,139.59182 C 298.73606,141.63671 298.24571,144.7614 297.47394,146.69966 C 294.98734,152.94467 292.07408,154.66681 289.25881,151.55597 C 287.64013,149.76735 287.40663,145.01848 288.91268,144.51646 C 289.65889,144.26773 289.54141,143.76147 288.49457,142.71462 C 287.11083,141.33088 286.96649,141.33088 285.58275,142.71462 C 284.5359,143.76147 284.41843,144.26773 285.16464,144.51646 C 285.73543,144.70673 286.20244,146.08976 286.20244,147.58987 C 286.20244,150.69182 283.65002,153.56821 281.59664,152.78026 C 279.69153,152.0492 277.84028,147.06131 277.84028,142.65935 C 277.84028,139.48192 278.09927,138.86952 279.44303,138.86952 C 280.32454,138.86952 281.20145,139.33653 281.39171,139.90732 C 281.64045,140.65354 282.14671,140.53606 283.19355,139.48922 C 284.5773,138.10548 284.5773,137.96113 283.19355,136.57739 C 282.14671,135.53054 281.64045,135.41307 281.39171,136.15929 C 280.82012,137.87406 277.84028,137.40005 277.84028,135.59434 C 277.84028,134.71283 278.30729,133.83592 278.87809,133.64565 C 279.6243,133.39692 279.50682,132.89066 278.45998,131.84381 C 277.07624,130.46007 276.93189,130.46007 275.54816,131.84381 C 274.50131,132.89066 274.38384,133.39692 275.13005,133.64565 C 276.84483,134.21725 276.37081,137.19709 274.5651,137.19709 C 273.6836,137.19709 272.80668,136.73008 272.61642,136.15929 C 272.36769,135.41307 271.86142,135.53054 270.81457,136.57739 C 269.43084,137.96113 269.43084,138.10548 270.81457,139.48922 C 271.86142,140.53606 272.36769,140.65354 272.61642,139.90732 C 272.80668,139.33653 273.6836,138.86952 274.5651,138.86952 C 275.90886,138.86952 276.16785,139.48192 276.16785,142.65935 C 276.16785,147.06131 274.3166,152.0492 272.41149,152.78026 C 270.35812,153.56821 267.80569,150.69182 267.80569,147.58987 C 267.80569,146.08976 268.2727,144.70673 268.84349,144.51646 C 269.58971,144.26773 269.47223,143.76147 268.42539,142.71462 C 267.04165,141.33088 266.8973,141.33088 265.51357,142.71462 C 264.46671,143.76147 264.34924,144.26773 265.09546,144.51646 C 266.69353,145.04916 266.3464,150.12444 264.60404,151.70126 C 262.74572,153.38301 259.98738,153.49374 258.69657,151.93841 C 258.17311,151.30769 257.16801,148.84927 256.46301,146.47527 C 255.04448,141.6986 254.83135,142.22552 261.41296,134.23808 L 263.80051,131.34056 L 260.15864,129.688 C 255.57907,127.60994 253.2734,127.60994 248.69382,129.688 L 245.05196,131.34056 L 247.4395,134.23808 C 251.74579,139.46418 253.59002,142.0483 253.59002,142.85612 C 253.59002,144.17897 248.02704,150.77768 245.93238,151.93947 C 243.62781,153.21768 242.28368,153.2522 239.16529,152.11328 L 236.8657,151.27339 L 236.8657,153.50931 C 237.66649,153.56695 237.21051,153.21088 238.48316,153.89198 C 239.37276,154.36808 241.77491,154.75763 243.82125,154.75763 C 247.10088,154.75763 247.90009,154.36115 250.56378,151.41276 C 253.83309,147.79402 254.42624,147.45567 254.42624,149.20945 C 254.42624,149.83731 255.20614,151.34249 256.15936,152.55431 C 258.00709,154.90332 262.24397,155.55537 265.24019,153.95183 C 266.24447,153.41436 267.62548,153.47808 269.38757,154.14319 C 272.41522,155.286 274.40992,154.47268 275.73898,151.55341 C 276.66125,149.52766 277.84028,149.14142 277.84028,150.86505 C 277.84028,153.04065 280.96751,155.00306 283.45544,154.38871 C 286.20499,153.70976 287.28159,153.71144 291.33359,154.40095 C 295.26244,155.06952 297.54541,153.79259 298.84457,150.19985 L 299.8875,147.31565 L 301.35304,150.58902 C 302.95433,154.16563 305.48826,155.35605 309.42288,154.38016 C 312.29897,153.66682 313.62759,153.66841 316.54458,154.38871 C 319.03251,155.00306 322.15973,153.04065 322.15973,150.86505 C 322.15973,149.14142 323.33876,149.52766 324.26103,151.55341 C 325.5901,154.47268 327.58479,155.286 330.61245,154.14319 C 332.37454,153.47808 333.75555,153.41436 334.75983,153.95183 C 337.75605,155.55537 341.99293,154.90332 343.84066,152.55431 C 344.79387,151.34249 345.57378,149.83731 345.57378,149.20945 C 345.57378,147.45567 346.16692,147.79402 349.43623,151.41276 C 352.09993,154.36115 352.89913,154.75763 356.17875,154.75763 C 358.22511,154.75763 360.62726,154.36808 361.51686,153.89198 C 362.78951,153.21088 361.93313,153.70041 363.00085,153.37584 z "
       id="path1932" />
    <rect
       style="fill:#fdec10;fill-opacity:1;stroke:none;stroke-width:10;stroke-miterlimit:4;stroke-dasharray:none;stroke-opacity:1"
       id="rect2006"
       width="126.26862"
       height="2.6199977"
       x="236.86571"
       y="156.05531" />
    <path
       style="fill:#03c;fill-opacity:1;stroke:none;stroke-width:10;stroke-miterlimit:4;stroke-opacity:1"
       d="M 237.04202,160.42197 L 362.92813,160.42197 L 362.92813,246.3579 C 362.92813,246.3579 370.09061,298.84518 299.98507,298.84518 C 230.31362,298.84518 237.04202,246.3579 237.04202,246.3579 L 237.04202,160.42197 z "
       id="rect2008" />
    <path
       style="fill:#fbeb0f;fill-opacity:1;stroke:none;stroke-width:10;stroke-miterlimit:4;stroke-opacity:1"
       d="M 263.06568,173.52196 L 336.86229,173.52196 L 336.86229,292.08123 C 313.87452,301.65793 286.35455,301.79349 263.06568,292.08123 L 263.06568,173.52196 z "
       id="rect2043" />
    <path
       style="fill:#090;fill-opacity:1;stroke:none;stroke-width:10;stroke-miterlimit:4;stroke-opacity:1"
       d="M 291.88565,172.64863 L 309.35231,172.64863 L 309.35231,298.87516 C 303.66566,299.28186 297.97901,299.41743 291.88565,298.87516 L 291.88565,172.64863 z "
       id="rect2046" />
    <rect
       style="fill:#da010b;fill-opacity:1;stroke:none;stroke-width:10;stroke-miterlimit:4;stroke-dasharray:none;stroke-opacity:1"
       id="rect2011"
       width="126.19656"
       height="14.029196"
       x="236.86571"
       y="160.40866" />
    <path
       style="fill:#da010b;fill-opacity:1;stroke:none;stroke-width:10;stroke-miterlimit:4;stroke-opacity:1"
       d="M 264.92409,292.4794 L 264.92409,172.4303 L 250.8949,172.4303 L 250.8949,283.57497 C 254.2613,287.23569 260.24769,291.00201 264.92409,292.4794 z "
       id="rect2031" />
    <path
       style="fill:#da010b;fill-opacity:1;stroke:none;stroke-width:10;stroke-miterlimit:4;stroke-opacity:1"
       d="M 292.98416,299.06355 L 292.98416,172.86698 L 278.95496,172.86698 L 278.95496,296.98441 C 283.19469,297.97856 288.74442,298.94274 292.98416,299.06355 z "
       id="rect2033" />
    <path
       style="fill:#da010b;fill-opacity:1;stroke:none;stroke-width:10;stroke-miterlimit:4;stroke-opacity:1"
       d="M 321.04255,296.95442 L 321.04255,172.4303 L 307.01335,172.4303 L 307.01335,299.16913 C 312.36759,299.03356 316.50172,297.93336 321.04255,296.95442 z "
       id="rect2035" />
    <path
       style="fill:#da010b;fill-opacity:1;stroke:none;stroke-width:10;stroke-miterlimit:4;stroke-opacity:1"
       d="M 349.10094,283.71054 L 349.10094,172.4303 L 335.07174,172.4303 L 335.07174,292.61497 C 339.74814,291.30497 346.08131,286.70728 349.10094,283.71054 z "
       id="rect2037" />
  </g>
</svg>
