<?xml version="1.0" encoding="UTF-8" standalone="no"?>
<!-- Created with Inkscape (http://www.inkscape.org/) -->

<svg
   xmlns:dc="http://purl.org/dc/elements/1.1/"
   xmlns:cc="http://creativecommons.org/ns#"
   xmlns:rdf="http://www.w3.org/1999/02/22-rdf-syntax-ns#"
   xmlns:svg="http://www.w3.org/2000/svg"
   xmlns="http://www.w3.org/2000/svg"
   xmlns:xlink="http://www.w3.org/1999/xlink"
   xmlns:sodipodi="http://sodipodi.sourceforge.net/DTD/sodipodi-0.dtd"
   xmlns:inkscape="http://www.inkscape.org/namespaces/inkscape"
   version="1.0"
   width="895"
   height="600"
   id="svg2413"
   inkscape:version="0.48.2 r9819"
   sodipodi:docname="88.svg">
  <metadata
     id="metadata61">
    <rdf:RDF>
      <cc:Work
         rdf:about="">
        <dc:format>image/svg+xml</dc:format>
        <dc:type
           rdf:resource="http://purl.org/dc/dcmitype/StillImage" />
        <dc:title></dc:title>
      </cc:Work>
    </rdf:RDF>
  </metadata>
  <sodipodi:namedview
     pagecolor="#ffffff"
     bordercolor="#666666"
     borderopacity="1"
     objecttolerance="10"
     gridtolerance="10"
     guidetolerance="10"
     inkscape:pageopacity="0"
     inkscape:pageshadow="2"
     inkscape:window-width="1366"
     inkscape:window-height="705"
     id="namedview59"
     showgrid="false"
     inkscape:zoom="0.68199737"
     inkscape:cx="571.5"
     inkscape:cy="380.5"
     inkscape:window-x="-4"
     inkscape:window-y="-4"
     inkscape:window-maximized="1"
     inkscape:current-layer="svg2413" />
  <defs
     id="defs2415" />
  <rect
     style="fill:#ffffff;fill-opacity:1;fill-rule:evenodd;stroke:none;stroke-width:1px;marker:none;visibility:visible;display:inline;overflow:visible;enable-background:accumulate"
     id="rect3367"
     y="-5e-007"
     x="2.13e-006"
     height="600"
     width="895" />
  <path
     inkscape:connector-curvature="0"
     style="fill:#d81921;fill-opacity:1;fill-rule:evenodd;stroke:none;stroke-width:1px;marker:none;visibility:visible;display:inline;overflow:visible;enable-background:accumulate"
     id="rect3322"
     d="m 418.01854,-5e-7 0,270.05312049999997 -418.01853787,0 0,59.89375 418.01853787,0 0,270.05313 58.96292,0 0,-270.05313 418.01854,0 0,-59.89375 -418.01854,0 0,-270.05312050000003 -58.96292,0 z" />
  <g
     id="g3219"
     transform="matrix(0.76890034,0,0,0.76824584,440.76433,-8.9978295)">
    <path
       d="m -358.64189,251.26429 c 20.1421,9.34718 25.06487,21.65613 33.95975,31.47349 8.89487,9.81737 22.15683,30.93689 47.9518,23.79697 0.80912,-5.28922 4.14097,-19.87664 13.86748,-26.47441 6.01024,-3.67324 13.34225,-8.92484 14.67648,-17.84968 10.67379,2.67744 37.40251,4.81891 38.6927,-9.37104 0.44475,-4.90868 -3.74626,-12.42915 0.73603,-17.60676 1.0124,0.0323 6.6849,0.14634 8.17201,-0.54985 1.55604,-1.84452 0.0199,-8.55529 -1.10794,-10.04552 l 0.0121,-0.0621 c 2.66265,-0.24356 9.53278,-6.5426 1.08271,-11.00496 -2.22843,-2.62832 -1.83817,-4.77598 -1.83085,-7.19838 1.39623,0.0191 4.8274,-0.0205 5.32933,-0.0542 8.90691,-0.0332 7.76282,-5.79893 5.19739,-11.93586 -1.77896,-4.01616 -11.80909,-23.20456 -13.58805,-25.882 -1.77897,-2.67744 -1.77897,-4.01616 -0.44479,-6.6936 1.33428,-2.67756 0.88954,-7.13992 0,-10.26356 -0.88945,-3.12376 -2.66843,-8.03244 -1.33418,-9.37116 1.33418,-1.33872 0.88948,-5.80108 0.44473,-6.6936 -0.44473,-0.89252 -0.44473,-3.12364 -0.44473,-4.01616 0,-0.89252 -0.44474,-3.12364 -1.77898,-4.01616 -1.33422,-0.89252 -2.22371,-4.01616 -1.33422,-4.90868 0.88947,-0.89253 -0.44474,-7.1398 -1.77896,-7.58612 -1.3343,-0.4462 -4.00275,-1.33872 -5.33698,-4.46236 0.15767,-4.40693 -3.29221,-9.40816 -5.3369,-11.602282 -1.33422,-1.33872 -0.88952,-5.801204 -0.88952,-5.801204 l -3.91308,0.0899 c -0.42633,-0.142546 -3.64744,-4.552253 -6.76072,-5.444775 -3.11315,-0.892396 -10.2291,-4.462358 -10.2291,-4.462358 l -4.8922,-5.354879 -4.44737,2.231116 c 0,0 -3.55797,-1.33872 -6.67112,-1.784918 -3.11328,-0.446198 -9.7844,-2.67744 -12.00815,-6.247401 -2.22363,-3.569962 -1.77893,4.248601 -1.85002,4.676365 -0.28414,0.07121 -3.93158,-1.998926 -10.158,-1.552602 -6.22643,0.446198 -13.34225,3.123638 -15.566,2.231116 -2.22375,-0.892396 -4.44737,1.785044 -4.44737,1.785044 0,0 -4.4475,2.67744 -8.00548,2.67744 -3.55785,0 -6.67112,0 -6.67112,0 l -0.4447,3.123637 c 0,0 -6.67112,2.302578 -9.7844,3.641298 -3.11315,1.338593 -5.7816,3.052301 -9.78427,3.498625 -4.00268,0.446198 -5.3369,1.784918 -5.3369,1.784918 l 1.77892,3.569962 c 0,0 -4.80273,0.982292 -6.22642,5.801068 -2.66845,3.56997 -6.22642,9.37117 -8.89487,9.81737 -2.66845,0.4462 -4.44738,1.78492 -4.44738,1.78492 l 3.55785,4.46248 c 0,0 -0.8894,1.33872 -2.66845,3.12364 -1.77892,1.78504 -5.3369,4.90868 -5.3369,4.90868 l 2.22375,4.01616 c 0,0 0,0.89252 -0.4447,3.12364 -0.44482,2.23124 -0.44482,6.2474 -2.66845,7.13992 -2.22375,0.89252 -2.22375,3.56996 -2.22375,3.56996 0,0 -0.44482,0.4462 2.22375,1.33872 2.66845,0.89252 4.44738,0.89252 3.11315,2.67744 -1.33422,1.78492 -3.55797,4.90868 -3.55797,4.90868 0,0 2.22375,1.33872 4.4475,1.78492 2.22362,0.4462 4.44737,0.4462 4.44737,0.4462 0,0 -1.77892,8.47864 -3.55797,9.81736 -1.77893,1.33872 2.66857,2.23124 5.33702,0.89252 2.66845,-1.33872 1.00102,4.01616 -0.77803,4.46236 -1.77905,0.4462 0.64565,1.07067 2.73589,1.09277 1.77893,-0.4462 4.06874,-0.13396 3.04583,2.49929 -1.33435,3.56983 -2.78006,5.33278 0.77791,7.1177 3.55797,1.78504 6.78274,9.81736 5.00369,12.4948 -1.77905,2.67744 -2.77994,6.6936 -2.77994,6.6936 l 8.45005,0.44632 c 0,0 0.57833,1.33872 -1.64542,3.56984 -2.22362,2.23124 -4.44737,4.77472 -4.13618,5.39919 -0.0672,0.96576 6.69302,0.57398 6.62582,1.5396 -5.75127,28.52497 -19.41137,36.52535 -19.43012,38.02783 l 1.08167,0.75969 0,0 0,0 0,0 0,0 0,0 0,0 0,0 0,0 0,0 0,0 0,0 0,0 0,0 0,0 0,0 0,0 0,0 0,0 z"
       id="path3314-2"
       style="fill:#000000;fill-rule:evenodd;stroke:#000000;stroke-width:1.26046431"
       inkscape:connector-curvature="0" />
    <path
       d="m -216.93636,114.62725 c 2.96391,2.23048 5.55743,5.94791 2.96391,8.1784 -3.33437,2.97389 -4.81632,4.08914 -4.81632,4.08914 0,0 5.92787,-1.85878 7.03934,0.3717 1.11147,2.23049 2.40858,5.62293 0,6.31962 -1.85244,1.11524 -5.92784,3.34573 -5.92784,3.34573 0,0 9.26228,-1.11524 7.03931,-0.74354 1.11148,2.9739 2.22297,8.17828 -3.70495,10.40876 -5.92794,2.23048 -24.45256,8.92181 -27.78705,10.78059 -3.33437,1.85865 -10.74427,2.97389 -14.44922,2.97389 -3.70495,0 -17.41476,0.74341 -15.19025,0.74341 l 8.15094,2.23049 c 1.39022,0.13951 -16.85794,6.22543 -19.54451,5.66888 -1.4354,-3.34648 -20.09831,-20.91031 -30.47212,0.65074 -1.1115,4.83267 2.59345,12.26754 6.2984,13.75448 3.70482,1.48695 5.55736,3.3456 7.03932,7.43487 1.48195,4.08914 5.27637,11.3836 9.35329,10.78122 5.60631,-3.67135 8.05996,-3.34648 5.4665,-0.37246 -2.87154,4.08989 -9.5862,4.27612 -12.96726,-0.74354 -2.82498,-3.48512 -5.37037,-12.49897 -11.11484,-14.8696 -2.96391,-1.11524 -6.66886,-8.1784 -6.66886,-8.1784 0,0 -5.18691,-0.37171 -7.4099,1.85878 -2.223,2.23036 -7.78036,2.23036 -11.11485,1.85865 -3.33436,-0.3717 -8.93854,-1.6257 -7.086,-1.6257 1.85241,0 -5.14185,-0.23219 -7.36472,0.13951 -2.223,0.37171 -1.48045,-5.57684 2.2245,-8.55086 3.70483,-2.9739 14.07863,-7.80657 16.30163,-10.78047 2.22299,-2.97389 18.15416,-11.8957 22.60015,-12.26753 4.44586,-0.37171 10.00335,-3.3456 10.00335,-3.3456 0,0 -8.33717,-0.13876 -4.26177,-0.8823 4.07541,-0.74341 12.04213,-3.95038 16.11753,-5.43732 4.07541,-1.48695 7.4099,-1.48695 11.85577,-1.48695 4.44599,0 33.96075,-7.25318 41.32548,-11.76238 5.55736,-1.85865 -26.36664,7.44093 -30.07159,7.81276 -6.2984,0.92939 -8.28998,-0.32537 2.08395,-5.34402 4.44586,-2.60219 24.24582,-13.02042 40.09255,-17.37319 1.62214,1.6276 1.03222,2.13188 3.99613,4.36224 l 0,0 0,0 0,0 z"
       id="path3316-3"
       style="fill:#ffffff;fill-rule:evenodd;stroke:#000000;stroke-width:0.15755804px"
       inkscape:connector-curvature="0" />
    <path
       d="m -297.83796,175.82592 c -0.14434,0.0168 -0.7418,0.12273 -1.12509,0.52524 -0.42507,0.55023 -0.78534,1.04403 -1.00001,1.57545 -0.15755,0.70895 -0.36479,1.29466 -0.25003,1.96939 0.23971,0.66096 0.56147,1.13089 1.00013,1.57545 0.49516,0.61336 0.85517,0.92409 1.375,1.31296 0.57959,0.27537 1.13515,0.81159 1.62528,1.05022 0.23468,0.31906 0.83768,0.5544 1.12508,0.91904 0.33309,0.44822 0.59029,0.67094 0.62502,1.31296 0.21631,0.63761 0.28854,1.42306 0.37512,2.10069 0.12281,0.74518 0.29697,1.44453 0.37498,2.10069 0.31207,0.56198 0.65309,0.85035 1.37512,1.05035 0.59747,0.10631 1.21544,0.13131 1.87507,0.13131 0.3736,-0.35858 1.01032,-0.76362 1.37524,-1.18166 0,-0.35011 0,-0.70023 0,-1.05047"
       id="path3318-3"
       style="fill:none;stroke:#ffffff;stroke-width:3.18875313px;stroke-linecap:round"
       inkscape:connector-curvature="0" />
    <path
       d="m -287.41873,172.89647 c -3.19771,-5.16145 -23.21788,-14.64726 -18.35185,3.76642 1.11225,1.95297 -0.97321,2.78994 -1.52939,1.39503 -5.14412,-21.76155 16.96162,-12.69429 20.4373,-6.9749 1.39035,2.37151 -0.55606,1.95297 -0.55606,1.81345 l 0,0 0,0 z"
       id="path3320-4"
       style="fill:#ffffff;fill-rule:evenodd;stroke:#ffffff;stroke-width:1.26046431px"
       inkscape:connector-curvature="0" />
    <path
       d="m -215.26276,141.5096 c -7.50754,-0.13952 -15.43223,0.2789 -21.54943,4.18484 -6.11733,3.90593 -11.53942,5.02193 -18.07376,5.02193 -6.53446,0 -9.87109,0.13952 -9.87109,0.13952 l 0,0"
       id="path3405-1"
       style="fill:none;stroke:#000000;stroke-width:2.52092862px;stroke-linecap:round"
       inkscape:connector-curvature="0" />
    <path
       d="m -307.65571,152.81757 c -12.54609,4.8727 -14.76959,6.30598 -20.06685,9.74552 -5.29726,3.43954 -7.25575,4.01275 -11.71659,6.87907 -3.31813,2.00638 -5.29726,4.29949 -5.29726,4.29949 -2.8567,2.29311 12.39509,-8.88558 22.30419,-6.59247 3.62442,0 4.18211,0 7.52768,-3.72627 3.34557,-3.72614 7.24883,-6.87907 12.82494,-9.17218 5.57599,-2.29311 15.33408,-6.01925 15.33408,-6.01925"
       id="path3324-1"
       style="fill:none;stroke:#000000;stroke-width:2.49044442px"
       inkscape:connector-curvature="0" />
    <path
       d="m -321.59718,174.60159 c -0.76042,0 -3.92516,-0.12045 -5.14211,0.28661 -1.06179,0.14394 -2.76081,0.28232 -3.71363,0.57334 -1.61546,0.19292 -3.10459,0.53029 -4.85634,0.57322 -1.88424,0.017 -2.55419,0.59429 -4.28504,0.85982 -0.54109,0.67864 -1.56325,1.49389 -2.28541,2.0065"
       id="path3326-3"
       style="fill:none;stroke:#000000;stroke-width:2.20581269px;stroke-linecap:round"
       inkscape:connector-curvature="0" />
    <path
       d="m -217.94379,164.03754 c -4.60655,6.37454 -11.66638,9.86976 -19.38281,11.52779 0.19491,1.87342 9.36511,1.99311 12.78278,6.33755"
       id="path3409-8"
       style="fill:none;stroke:#ffffff;stroke-width:2.83604479px"
       inkscape:connector-curvature="0" />
    <path
       d="m -390.26527,90.618546 c -0.14735,1.6276 -0.65686,8.734696 0.0492,8.814744 3.99928,0.57321 6.75757,1.24516 10.18569,4.6847 3.42798,3.43953 11.27302,9.29591 15.72102,1.25741 2.28541,-4.58609 -3.28051,-6.731226 -6.13721,-6.731226 -2.80749,-0.09861 -7.21863,-2.274423 -11.78932,-3.421103 -4.57081,-1.146428 -6.42587,-4.092799 -6.99716,-3.519458 l -1.03222,-1.085067 0,0 z"
       id="path3330-7"
       style="fill:#ffffff;stroke:#000000;stroke-width:2.52092862px;stroke-linecap:butt;stroke-linejoin:miter"
       inkscape:connector-curvature="0" />
    <path
       d="m -408.278,108.17682 c -0.62615,-0.34557 -3.59006,-4.31943 -2.05601,-9.162709 2.223,-3.3456 -10.06589,3.602289 -7.47244,7.319719 3.28228,2.56544 9.78428,2.53413 9.52845,1.84299 l 0,0 z"
       id="path3332-4"
       style="fill:#ffffff;stroke:#000000;stroke-width:2.52092862px;stroke-linecap:butt;stroke-linejoin:miter"
       inkscape:connector-curvature="0" />
    <path
       d="m -379.01226,92.659138 c 0.0527,-0.758183 0.14421,-7.540795 0.0295,-9.038348 -2.2961,-0.34557 -9.09545,-1.335058 -10.57741,0.895426 -5.27058,7.990149 10.0791,11.97083 10.44969,10.855587 l 0.0983,-2.712665 0,0 z"
       id="path3334-2"
       style="fill:#ffffff;stroke:#000000;stroke-width:2.52092862px;stroke-linecap:butt;stroke-linejoin:miter"
       inkscape:connector-curvature="0" />
    <path
       d="m -366.61578,108.67946 -9.63277,33.45676 c 0,0 -5.43794,23.74924 11.11485,30.11103 5.1869,0.37183 7.03931,-0.37171 7.03931,-0.37171 l -1.48195,8.17828 c -7.34761,7.60266 -12.08554,5.80663 -18.38381,3.20444 -6.2984,-2.60219 -6.5541,-2.80647 -9.88847,-4.66525 -3.33449,-1.85866 -7.93173,-12.33585 -8.44312,-15.31479 -1.42974,-7.70203 -6.25612,-22.83185 -20.74774,-54.97059 2.61459,-0.2303 19.66229,1.49755 20.8104,1.49755 0.57406,0.92144 3.25509,5.31624 7.38373,7.05255 4.53458,1.85866 11.06627,-3.49925 4.44586,-7.80657 -3.23533,-2.069 -13.97066,0.36931 -13.77084,-5.25677 0.27332,-4.888356 7.47257,-4.408447 10.43648,-4.036742 2.9639,0.371702 7.03931,3.717432 8.89185,5.576082 4.14852,4.16262 10.00335,4.83268 12.22622,3.34573 l 0,0 0,0 0,0 0,0 z"
       id="path3414-7"
       style="fill:#ffffff;stroke:#000000;stroke-width:2.52092862px;stroke-linecap:butt;stroke-linejoin:miter"
       inkscape:connector-curvature="0" />
    <path
       d="m -351.79598,188.23222 c -2.223,3.7173 -4.44599,8.17827 -5.55749,14.12619 -1.11137,5.94779 -4.32053,14.26747 -12.59668,16.35655 -6.66886,1.85878 -12.5968,4.83267 -14.07875,10.03705 -1.48196,5.20438 -2.54136,11.84343 -2.54136,11.72829 l -10.31114,-14.63944 c 0.11488,-1.95814 0.19315,-6.72794 0.19315,-12.30402 0.11476,-8.11047 6.10525,-10.08945 12.03307,-12.31994 5.92794,-2.23035 12.57075,-5.00009 14.42316,-8.34581 1.85254,-3.3456 6.58027,-9.09984 9.17373,-11.33032 2.59345,-2.23036 9.26231,6.69145 9.26231,6.69145 l 0,0 0,0 0,0 z"
       id="path3416-7"
       style="fill:#ffffff;stroke:#000000;stroke-width:2.52092862px;stroke-linecap:butt;stroke-linejoin:miter"
       inkscape:connector-curvature="0" />
    <path
       d="m -362.69377,257.24074 c -5.72698,10.33263 -7.03805,23.60001 -9.3933,33.48517 -4.08648,-7.78801 -10.44843,-13.33998 -17.15479,-17.71067 -0.39298,-7.75442 -2.35034,-18.45913 -4.5732,-21.80486 -10.73722,-15.70025 -3.18098,-24.68898 -3.18098,-24.68898 10.72929,12.64303 11.0995,21.68845 34.28377,30.70053 l 0.0185,0.0188 0,0 0,0 z"
       id="path3340-9"
       style="fill:#ffffff;stroke:#000000;stroke-width:2.52092862px"
       inkscape:connector-curvature="0" />
    <path
       d="m -352.48946,289.17685 c 0.29496,2.56443 -3.1251,11.48031 -8.914,11.8784 -5.68697,0.39103 -8.96786,-3.99835 -10.00763,-9.12925 l 2.84953,-17.23089 16.0721,14.48174 0,0 z"
       id="path3419-3"
       style="fill:#ffffff;stroke:#000000;stroke-width:2.52092862px"
       inkscape:connector-curvature="0" />
    <path
       d="m -352.44944,174.8882 c 1.1427,-3.15293 -0.57129,-3.15305 -3.71376,-1.71989 -5.14198,3.15305 -1.42822,11.17868 4.28505,12.89845 3.14246,1.43316 4.85646,-2.29298 0.28564,-4.01275 -4.28505,-1.14656 -0.85693,-7.45242 -0.85693,-7.16581 l -0.28565,0 0.28565,0 0,0 z"
       id="path3421-1"
       style="fill:#ffffff;fill-rule:evenodd;stroke:#000000;stroke-width:1.26046431px"
       inkscape:connector-curvature="0" />
    <path
       d="m -389.58652,223.93739 c 0,0.12967 0,0.25934 0,0.389 0,-1.04958 0.0188,-0.51602 -0.28564,1.55488 0,2.10347 -0.15692,3.87008 -0.28565,5.8315 0,1.6247 0.1919,2.78842 0.28565,4.27651"
       id="path3423-9"
       style="fill:#ffffff;stroke:#000000;stroke-width:1.57558048px"
       inkscape:connector-curvature="0" />
    <path
       d="m -386.72982,225.87874 c 0,0.23661 0,0.47322 0,0.70983 0,-1.31309 0.0375,-0.94227 -0.28564,1.06486 -0.11502,2.00019 -0.51467,3.04511 -0.57129,4.96929 0,1.95259 0.23229,3.46857 0.28564,5.32432"
       id="path3348-8"
       style="fill:#ffffff;stroke:#000000;stroke-width:1.57558048px"
       inkscape:connector-curvature="0" />
    <path
       d="m -385.30147,268.61677 c -0.0951,0 -0.19039,0 -0.28565,0 0.0761,0.26956 0,1.806 0,2.83249 0,1.5449 0.0291,3.05331 0.28565,4.04658"
       id="path3426-6"
       style="fill:#ffffff;stroke:#000000;stroke-width:1.57558048px"
       inkscape:connector-curvature="0" />
    <path
       d="m -382.159,270.04993 c 0,0.19103 0,0.38219 0,0.57322 l 0,-0.57322 c 0,0.19103 0,0.38219 0,0.57322 l 0,-0.57322 c -0.0618,2.11799 -0.28577,3.2898 -0.28577,5.44604 0,0.65907 -0.12357,1.15931 0.28577,1.43316"
       id="path3429-5"
       style="fill:#ffffff;stroke:#000000;stroke-width:1.57558048px"
       inkscape:connector-curvature="0" />
    <path
       d="m -379.30243,271.7697 c -0.11615,2.30826 -0.50095,3.81907 -0.57129,6.19122 0,1.19137 0.23833,1.3242 0.28565,2.40775"
       id="path3431-0"
       style="fill:#ffffff;stroke:#000000;stroke-width:1.57558048px"
       inkscape:connector-curvature="0" />
    <path
       d="m -375.87432,273.5156 c 0,0.12071 0,0.24154 0,0.36211 0,-0.97774 0.0186,-0.48016 -0.28564,1.44882 -0.0521,1.77974 -0.28577,2.7388 -0.28577,4.70869 0.0534,1.89211 0.47037,2.68059 0.57141,4.3462"
       id="path3433-2"
       style="fill:#ffffff;stroke:#000000;stroke-width:1.57558048px"
       inkscape:connector-curvature="0" />
    <path
       d="m -373.30326,274.63602 c 0,0.51211 -0.15465,2.49929 -0.28577,3.72615 0,1.33771 0,2.67529 0,4.01287 0.15855,1.33569 0.4491,2.77125 0.85706,3.72627 0,0.28661 0,0.57322 0,0.85982"
       id="path3435-8"
       style="fill:#ffffff;stroke:#000000;stroke-width:1.57558048px"
       inkscape:connector-curvature="0" />
    <path
       d="m -392.44309,224.56856 c -0.0726,0.53836 -0.49591,2.59423 0,3.91565 0,1.16815 0.13288,1.76725 0.28564,2.61053"
       id="path3360-6"
       style="fill:#ffffff;stroke:#000000;stroke-width:1.57558048px"
       inkscape:connector-curvature="0" />
    <path
       d="m -359.45655,175.00562 c -3.83405,0.78912 -13.17337,0 -16.90903,-2.76191 -3.73577,-2.7619 -3.73577,-2.7619 -3.73577,-2.7619"
       id="path3362-0"
       style="fill:#ffffff;stroke:#000000;stroke-width:1.26046431"
       inkscape:connector-curvature="0" />
    <path
       d="m -359.46951,176.89192 c -3.66216,1.38544 -13.00878,2.08277 -17.1315,-0.054 -4.12285,-2.1368 -4.12285,-2.1368 -4.12285,-2.1368"
       id="path3364-2"
       style="fill:#ffffff;stroke:#000000;stroke-width:1.26046431"
       inkscape:connector-curvature="0" />
    <path
       d="m -359.16172,181.91058 c -1.96616,2.36735 -3.34254,3.55102 -3.93233,6.70748 -0.58991,3.15647 -0.58991,3.15647 -0.58991,3.15647"
       id="path3366-4"
       style="fill:#ffffff;stroke:#000000;stroke-width:1.26046431px"
       inkscape:connector-curvature="0" />
    <path
       d="m -356.80232,183.09425 c -2.3594,3.35381 -3.93233,4.53748 -4.71879,7.89116 -0.78647,3.35381 -0.78647,3.35381 -0.78647,3.35381"
       id="path3368-8"
       style="fill:#ffffff;stroke:#000000;stroke-width:1.26046431px"
       inkscape:connector-curvature="0" />
    <path
       d="m -354.83615,185.26438 c -0.98315,5.12926 -4.91548,14.79587 -7.86466,17.95233 -2.94932,3.15647 -2.94932,3.15647 -2.94932,3.15647"
       id="path3370-6"
       style="fill:#ffffff;stroke:#000000;stroke-width:1.26046431"
       inkscape:connector-curvature="0" />
    <path
       d="m -369.57894,294.22492 c 1.98404,-0.25757 5.84339,-3.47275 6.70951,-4.62763 0.86612,-1.15527 0.92966,-1.64174 0.92966,-1.64174"
       id="path3443-5"
       style="fill:#ffffff;stroke:#000000;stroke-width:1.50726712px"
       inkscape:connector-curvature="0" />
    <path
       d="m -368.20709,296.83645 c 2.14511,-0.52132 6.32118,-4.04672 7.2589,-5.23885 0.9381,-1.19251 1.12735,-1.50349 1.12735,-1.50349"
       id="path3374-0"
       style="fill:#ffffff;stroke:#000000;stroke-width:1.50713217px"
       inkscape:connector-curvature="0" />
    <path
       d="m -367.02978,299.24117 c 2.26515,-0.25012 6.95123,-3.80897 8.04751,-5.0982 1.09639,-1.2896 1.09639,-1.2896 1.09639,-1.2896"
       id="path3447-9"
       style="fill:#ffffff;stroke:#000000;stroke-width:1.70484364px"
       inkscape:connector-curvature="0" />
    <path
       d="m -395.17093,120.50509 c 0.28916,2.39374 0.43375,7.10861 -0.43376,10.08263 -0.8675,2.97402 -0.8675,2.97402 -0.8675,2.97402"
       id="path3449-0"
       style="fill:#ffffff;stroke:#000000;stroke-width:1.26046431px"
       inkscape:connector-curvature="0" />
    <path
       d="m -402.11109,112.96127 c 1.66265,0.58028 4.12071,1.88592 4.91586,2.97402 0.79527,1.08809 0.79527,1.08809 0.79527,1.08809"
       id="path3451-0"
       style="fill:#ffffff;stroke:#000000;stroke-width:1.26046431px"
       inkscape:connector-curvature="0" />
    <path
       d="m -382.04638,115.1088 c -3.58138,6.31583 -2.47001,26.95229 -1.72909,29.30234 0.74104,2.35006 0.74104,2.35006 0.74104,2.35006"
       id="path3453-6"
       style="fill:#ffffff;stroke:#000000;stroke-width:1.65765059px"
       inkscape:connector-curvature="0" />
    <path
       d="m -370.3688,102.30845 c 1.47466,0.49317 4.52225,2.90988 4.768,4.24141"
       id="path3455-1"
       style="fill:#ffffff;stroke:#000000;stroke-width:1.26046431px"
       inkscape:connector-curvature="0" />
    <path
       d="m -372.7282,104.03466 c 1.47466,0.49316 4.52225,2.90988 4.768,4.2414"
       id="path3457-3"
       style="fill:#ffffff;stroke:#000000;stroke-width:1.26046431"
       inkscape:connector-curvature="0" />
    <path
       d="m -224.64679,170.36954 c 2.92025,-0.15726 3.15719,8.33894 -0.60602,8.14223"
       id="path3459-8"
       style="fill:none;stroke:#ffffff;stroke-width:1.82767344"
       inkscape:connector-curvature="0" />
    <path
       d="m -225.06066,170.53912 0.10029,7.11999 0,0"
       id="path3390-9"
       style="fill:none;stroke:#ffffff;stroke-width:4.50211143"
       inkscape:connector-curvature="0" />
    <path
       d="m -225.25948,170.36951 c -2.92024,-0.15727 -3.15719,8.33893 0.60602,8.14222"
       id="path3392-3"
       style="fill:none;stroke:#ffffff;stroke-width:1.82767344"
       inkscape:connector-curvature="0" />
  </g>
  <use
     x="0"
     y="0"
     xlink:href="#g3219"
     id="use3314"
     transform="translate(0,326.05277)"
     width="895"
     height="600" />
  <use
     x="0"
     y="0"
     xlink:href="#g3219"
     id="use3316"
     transform="translate(475.02187,0)"
     width="895"
     height="600" />
  <use
     x="0"
     y="0"
     xlink:href="#g3219"
     id="use3318"
     transform="translate(475.02187,326.05277)"
     width="895"
     height="600" />
</svg>
