<svg xmlns="http://www.w3.org/2000/svg" width="900" height="600"><path fill="#09C" d="M0 0h900v200H0z"/><path fill="#9C3" d="M0 200h900v200H0z"/><path fill="#FFE513" d="M0 400h900v200H0z"/><path fill="#C03" d="M429.675 477.64l28.455 30.081 8.13-409.752L450 80.897z"/><path fill="#C03" d="M657.315 515.851l54.471-23.577C606.91 388.21 546.747 350 447.561 347.56c-126.015 8.943-208.128 59.349-243.087 159.348l24.39-4.878c99.999-123.576 156.909-109.755 220.323-117.072 67.479 2.44 136.584 46.341 208.128 130.893zM289.839 93.092l-52.032 13.82c50.406 89.43 122.763 143.902 215.445 147.967 122.763.813 193.494-82.113 242.274-156.91l-41.463 12.196C575.202 221.545 489.837 225.61 451.626 219.92c-64.227-4.878-117.072-57.723-161.787-126.828z"/></svg>