<?xml version="1.0" encoding="UTF-8" standalone="no"?>
<!-- Created with Inkscape (http://www.inkscape.org/) -->
<svg xmlns:dc="http://purl.org/dc/elements/1.1/" xmlns:cc="http://creativecommons.org/ns#" xmlns:rdf="http://www.w3.org/1999/02/22-rdf-syntax-ns#" xmlns:svg="http://www.w3.org/2000/svg" xmlns="http://www.w3.org/2000/svg" xmlns:sodipodi="http://sodipodi.sourceforge.net/DTD/sodipodi-0.dtd" xmlns:inkscape="http://www.inkscape.org/namespaces/inkscape" width="3000px" height="1800px" viewBox="0 0 3000 1800" id="SVGRoot" inkscape:version="0.92.0 r15299" sodipodi:docname="Bandera del pueblo Pilagá.svg">
  <defs id="defs5914"></defs>
  <metadata id="metadata5917"></metadata>
  <g id="layer1" inkscape:groupmode="layer" inkscape:label="Capa 1">
    <g id="g5890">
      <g id="g5116">
        <path inkscape:connector-curvature="0" id="rect5076" d="M 0,0 H 3000 V 1800 H 0 Z" style="opacity:1;fill:#0abc42;fill-opacity:1;fill-rule:nonzero;stroke:none;stroke-width:18.89763832;stroke-linecap:square;stroke-miterlimit:4;stroke-dasharray:none;stroke-opacity:1;paint-order:normal"></path>
        <path inkscape:connector-curvature="0" id="rect5078" d="M 0,600 H 3000 V 1800 H 0 Z" style="opacity:1;fill:#0f47af;fill-opacity:1;fill-rule:nonzero;stroke:none;stroke-width:18.89763832;stroke-linecap:square;stroke-miterlimit:4;stroke-dasharray:none;stroke-opacity:1;paint-order:normal"></path>
        <path inkscape:connector-curvature="0" id="rect5080" d="m 0,1200 h 3000 v 600 H 0 Z" style="opacity:1;fill:#da121a;fill-opacity:1;fill-rule:nonzero;stroke:none;stroke-width:18.89763832;stroke-linecap:square;stroke-miterlimit:4;stroke-dasharray:none;stroke-opacity:1;paint-order:normal"></path>
        <path inkscape:connector-curvature="0" id="rect5082" d="m 0,1175 h 3000 v 50 H 0 Z" style="opacity:1;fill:#ffffff;fill-opacity:1;fill-rule:nonzero;stroke:none;stroke-width:18.89763832;stroke-linecap:square;stroke-miterlimit:4;stroke-dasharray:none;stroke-opacity:1;paint-order:normal"></path>
        <path inkscape:connector-curvature="0" id="rect5084" d="m 0,575 h 3000 v 50 H 0 Z" style="opacity:1;fill:#ffffff;fill-opacity:1;fill-rule:nonzero;stroke:none;stroke-width:18.89763832;stroke-linecap:square;stroke-miterlimit:4;stroke-dasharray:none;stroke-opacity:1;paint-order:normal"></path>
      </g>
      <path sodipodi:nodetypes="cccc" inkscape:connector-curvature="0" id="path5086" d="M 50,50 V 1750 H 2950 Z" style="fill:#ffffff;fill-opacity:1;stroke:none;stroke-width:1px;stroke-linecap:butt;stroke-linejoin:miter;stroke-opacity:1"></path>
      <g transform="matrix(1.0429743,0,0,1,-56.445953,50)" id="g5861">
        <path style="opacity:1;fill:#0abc42;fill-opacity:1;fill-rule:nonzero;stroke:none;stroke-width:1.60269403;stroke-linecap:square;stroke-miterlimit:4;stroke-dasharray:none;stroke-opacity:1;paint-order:normal" d="m 2624.2217,1600 v 50 h -776.8011 v -50 z" id="rect5118" inkscape:connector-curvature="0"></path>
        <path style="opacity:1;fill:#0f47af;fill-opacity:1;fill-rule:nonzero;stroke:none;stroke-width:1.90135777;stroke-linecap:square;stroke-miterlimit:4;stroke-dasharray:none;stroke-opacity:1;paint-order:normal" d="m 1751.5413,1600 v 50 h -728.8616 v -50 z" id="rect5120" inkscape:connector-curvature="0"></path>
        <path style="opacity:1;fill:#da121a;fill-opacity:1;fill-rule:nonzero;stroke:none;stroke-width:2.7759459;stroke-linecap:square;stroke-miterlimit:4;stroke-dasharray:none;stroke-opacity:1;paint-order:normal" d="m 926.80028,1600 v 50 H 149.99982 v -50 z" id="rect5122" inkscape:connector-curvature="0"></path>
      </g>
      <path inkscape:connector-curvature="0" id="path5157" d="M 1270.3341,1143.979 A 462.11697,350.0372 0 0 1 808.2171,1494.0162 462.11697,350.0372 0 0 1 346.10013,1143.979 462.11697,350.0372 0 0 1 808.2171,793.9418 a 462.11697,350.0372 0 0 1 462.117,350.0372 z" style="opacity:1;fill:#fcdd09;fill-opacity:1;fill-rule:nonzero;stroke:none;stroke-width:36.01412201;stroke-linecap:square;stroke-miterlimit:4;stroke-dasharray:none;stroke-opacity:1;paint-order:normal"></path>
      <path style="fill:#000000;stroke:none;stroke-width:1.88278401px;stroke-linecap:butt;stroke-linejoin:miter;stroke-opacity:1" d="m 161.65837,955.93849 c 92.46429,-8.6441 233.41301,-46.04983 456.81256,50.17021 71.29223,29.9309 132.34407,85.4634 213.88301,89.778 47.61929,-12.8186 87.59914,-94.6331 147.87008,-76.5754 -15.00492,16.7026 -32.38742,32.2163 -18.48408,63.3728 56.55146,13.1114 160.53326,-137.59324 406.64226,-166.3536 -16.8332,10.5621 -35.5129,21.12426 -42.2485,31.68636 32.1379,-0.6658 47.1451,7.23373 66.0135,13.20273 -17.0959,4.5364 -36.2312,4.99364 -50.1702,15.84317 30.1555,8.1385 34.6426,24.83314 44.8888,39.60804 -21.0012,-5.1829 -33.5686,-3.6183 -36.9672,5.2811 v 23.7648 c -17.1458,-10.9845 -18.7338,-6.4114 -26.4055,-7.9217 v 36.9675 c -9.8311,-9.682 -14.9936,-19.3639 -44.8888,-29.0458 -5.2811,16.7233 -7.0418,29.9261 -5.2811,39.6079 -107.1101,6.1787 -181.2609,70.348 -216.5238,110.9025 -40.0651,37.8134 -88.67652,38.0183 -134.66722,84.4971 -4.77539,39.9824 1.14048,69.2737 2.64068,102.9807 -39.16542,-3.0211 -35.8369,26.2477 -81.85688,22.6176 -58.50751,-6.5551 -63.4943,-45.1304 -100.34028,-46.3824 27.83225,-23.7648 36.6567,-47.5296 47.52967,-71.2944 -44.00899,-7.9216 -72.94075,4.2592 -132.02668,-23.7648 -100.96654,-28.2622 -175.49546,-135.884 -340.62888,-174.2752 12.56342,-2.1196 24.96312,-4.4436 23.76504,-23.7649 -49.79055,18.4811 -97.73712,34.8107 -126.74559,29.0459 31.68475,-15.8431 47.53132,-31.6864 47.52967,-47.5296 -16.50306,6.1981 -29.31486,13.0113 -66.01361,15.8433 v -15.8433 l -42.24858,-7.9215 c 22.76408,-8.3191 42.12211,-3.015 71.29443,-36.9675 -29.16214,-0.3819 -42.39249,-8.72978 -58.09157,-15.84324 13.70348,-1.7087 20.2368,0.88433 50.16993,-10.5621 -10.87255,-18.45807 -35.49175,-16.29627 -55.45116,-21.12427 z" id="path5155" inkscape:connector-curvature="0" sodipodi:nodetypes="cccccccccccccccccccccccccccccccccc"></path>
    </g>
  </g>
</svg>
